<svg width="432" height="304" viewBox="0 0 432 304" fill="none" xmlns="http://www.w3.org/2000/svg">
<path fill-rule="evenodd" clip-rule="evenodd" d="M-349.279 369.566L-349.279 476.539H-347.879L-347.879 369.566H-280.11V476.539H-278.71V369.566H-210.941V476.539H-209.541V369.566H-141.772V476.539H-140.372V369.566H-73.6506V476.539H-72.2506V369.566H-4.48154V476.539H-3.08154V369.566H64.6876V476.539H66.0876V369.566H133.857V476.539H135.257V369.566H201.978V476.539H203.378V369.566H271.147V476.539H272.547V369.566H340.316V476.539H341.716V369.566H408.437V476.539H409.837V369.566H477.606V476.539H479.006V369.566H546.775V476.539H548.175V369.566H615.944V476.539H617.344V369.566H684.065V476.539H685.465V369.566H753.234V476.539H754.634V369.566H849.652V368.166H754.634V300.115H849.652V298.715H754.634V230.665H849.652V229.265H754.634V161.215H849.652V159.815H754.634V91.7646H849.652V90.3646H754.634V22.3143H849.652V20.9143H754.634V-47.1359H849.652V-48.5359H754.634V-116.586H849.652V-117.986H754.634V-216.2H753.234V-117.986H685.465V-216.2H684.065V-117.986H617.344V-216.2H615.944V-117.986H548.175V-216.2H546.775V-117.986H479.006V-216.2H477.606V-117.986H409.837V-216.2H408.437V-117.986H341.716V-216.2H340.316V-117.986H272.547V-216.2H271.147V-117.986H203.378V-216.2H201.978V-117.986H135.257V-216.2H133.857V-117.986H66.0876V-216.2H64.6876V-117.986H-3.08151V-216.2H-4.48151V-117.986H-72.2506V-216.2H-73.6506V-117.986H-140.372V-216.2H-141.772V-117.986H-209.541V-216.2H-210.941V-117.986H-278.71V-216.2H-280.11V-117.986H-347.879L-347.879 -216.2H-349.279L-349.279 -117.986H-444.648V-116.586H-349.279V-48.5359H-444.648V-47.1359H-349.279L-349.279 20.9143H-444.648V22.3143H-349.279V90.3646H-444.648V91.7646H-349.279L-349.279 159.815H-444.648V161.215H-349.279V229.265H-444.648V230.665H-349.279L-349.279 298.715H-444.648V300.115H-349.279V368.166H-444.648V369.566H-349.279ZM753.234 -116.586H685.465V-48.5359H753.234V-116.586ZM753.234 -47.1359H685.465V20.9143H753.234V-47.1359ZM753.234 22.3143H685.465V90.3646H753.234V22.3143ZM753.234 91.7646H685.465V159.815H753.234V91.7646ZM753.234 161.215H685.465V229.265H753.234V161.215ZM753.234 230.665H685.465V298.715H753.234V230.665ZM753.234 300.115H685.465V368.166H753.234V300.115ZM684.065 300.115V368.166H617.344V300.115H684.065ZM684.065 230.665V298.715H617.344V230.665H684.065ZM684.065 161.215V229.265H617.344V161.215H684.065ZM684.065 91.7646V159.815H617.344V91.7646H684.065ZM684.065 22.3143V90.3646H617.344V22.3143H684.065ZM684.065 -47.1359V20.9143H617.344V-47.1359H684.065ZM684.065 -116.586V-48.5359H617.344V-116.586H684.065ZM615.944 -116.586H548.175V-48.5359H615.944V-116.586ZM615.944 -47.1359H548.175V20.9143H615.944V-47.1359ZM615.944 22.3143H548.175V90.3646H615.944V22.3143ZM615.944 91.7646H548.175L548.175 159.815H615.944V91.7646ZM615.944 161.215H548.175V229.265H615.944V161.215ZM615.944 230.665H548.175V298.715H615.944V230.665ZM615.944 300.115H548.175V368.166H615.944V300.115ZM546.775 300.115V368.166H479.006V300.115H546.775ZM546.775 230.665V298.715H479.006V230.665H546.775ZM546.775 161.215V229.265H479.006V161.215H546.775ZM546.775 91.7646L546.775 159.815H479.006L479.006 91.7646H546.775ZM546.775 22.3143V90.3646H479.006V22.3143H546.775ZM546.775 -47.1359V20.9143H479.006V-47.1359H546.775ZM546.775 -116.586V-48.5359H479.006V-116.586H546.775ZM477.606 -116.586H409.837V-48.5359H477.606V-116.586ZM477.606 -47.1359H409.837V20.9143H477.606V-47.1359ZM477.606 22.3143H409.837V90.3646H477.606V22.3143ZM477.606 91.7646H409.837L409.837 159.815H477.606L477.606 91.7646ZM477.606 161.215H409.837V229.265H477.606V161.215ZM477.606 230.665H409.837V298.715H477.606V230.665ZM477.606 300.115H409.837V368.166H477.606V300.115ZM408.437 300.115V368.166H341.716V300.115H408.437ZM408.437 230.665V298.715H341.716V230.665H408.437ZM408.437 161.215V229.265H341.716V161.215H408.437ZM408.437 91.7646L408.437 159.815H341.716L341.716 91.7646H408.437ZM408.437 22.3143V90.3646H341.716V22.3143H408.437ZM408.437 -47.1359V20.9143H341.716V-47.1359H408.437ZM408.437 -116.586V-48.5359H341.716V-116.586H408.437ZM340.316 -116.586H272.547V-48.5359H340.316V-116.586ZM340.316 -47.1359H272.547V20.9143H340.316V-47.1359ZM340.316 22.3143H272.547V90.3646H340.316V22.3143ZM340.316 91.7646H272.547L272.547 159.815H340.316L340.316 91.7646ZM340.316 161.215H272.547V229.265H340.316V161.215ZM340.316 230.665H272.547V298.715H340.316V230.665ZM340.316 300.115H272.547V368.166H340.316V300.115ZM271.147 300.115V368.166H203.378V300.115H271.147ZM271.147 230.665V298.715H203.378V230.665H271.147ZM271.147 161.215V229.265H203.378V161.215H271.147ZM271.147 91.7646L271.147 159.815H203.378L203.378 91.7646H271.147ZM271.147 22.3143V90.3646H203.378V22.3143H271.147ZM271.147 -47.1359V20.9143H203.378V-47.1359H271.147ZM271.147 -116.586V-48.5359H203.378V-116.586H271.147ZM201.978 -116.586H135.257V-48.5359H201.978V-116.586ZM201.978 -47.1359H135.257V20.9143H201.978V-47.1359ZM201.978 22.3143H135.257V90.3646H201.978V22.3143ZM201.978 91.7646H135.257L135.257 159.815H201.978L201.978 91.7646ZM201.978 161.215H135.257V229.265H201.978V161.215ZM201.978 230.665H135.257V298.715H201.978V230.665ZM201.978 300.115H135.257V368.166H201.978V300.115ZM133.857 300.115V368.166H66.0876V300.115H133.857ZM133.857 230.665V298.715H66.0876V230.665H133.857ZM133.857 161.215V229.265H66.0876V161.215H133.857ZM133.857 91.7646L133.857 159.815H66.0876L66.0876 91.7646H133.857ZM133.857 22.3143V90.3646H66.0876V22.3143H133.857ZM133.857 -47.1359V20.9143H66.0876V-47.1359H133.857ZM133.857 -116.586V-48.5359H66.0876V-116.586H133.857ZM64.6876 -116.586H-3.08151V-48.5359H64.6876V-116.586ZM64.6876 -47.1359H-3.08151V20.9143H64.6876V-47.1359ZM64.6876 22.3143H-3.08151V90.3646H64.6876V22.3143ZM64.6876 91.7646H-3.08151L-3.08154 159.815H64.6876L64.6876 91.7646ZM64.6876 161.215H-3.08154V229.265H64.6876V161.215ZM64.6876 230.665H-3.08154V298.715H64.6876V230.665ZM64.6876 300.115H-3.08154V368.166H64.6876V300.115ZM-4.48154 300.115V368.166H-72.2506V300.115H-4.48154ZM-4.48154 230.665V298.715H-72.2506V230.665H-4.48154ZM-4.48154 161.215V229.265H-72.2506V161.215H-4.48154ZM-4.48151 91.7646L-4.48154 159.815H-72.2506L-72.2506 91.7646H-4.48151ZM-4.48151 22.3143V90.3646H-72.2506V22.3143H-4.48151ZM-4.48151 -47.1359V20.9143H-72.2506V-47.1359H-4.48151ZM-4.48151 -116.586V-48.5359H-72.2506V-116.586H-4.48151ZM-73.6506 -116.586H-140.372V-48.5359H-73.6506V-116.586ZM-73.6506 -47.1359H-140.372V20.9143H-73.6506V-47.1359ZM-73.6506 22.3143H-140.372V90.3646H-73.6506V22.3143ZM-73.6506 91.7646H-140.372L-140.372 159.815H-73.6506L-73.6506 91.7646ZM-73.6506 161.215H-140.372V229.265H-73.6506V161.215ZM-73.6506 230.665H-140.372V298.715H-73.6506V230.665ZM-73.6506 300.115H-140.372V368.166H-73.6506V300.115ZM-141.772 300.115V368.166H-209.541L-209.541 300.115H-141.772ZM-141.772 230.665V298.715H-209.541V230.665H-141.772ZM-141.772 161.215V229.265H-209.541V161.215H-141.772ZM-141.772 91.7646L-141.772 159.815H-209.541V91.7646H-141.772ZM-141.772 22.3143V90.3646H-209.541V22.3143H-141.772ZM-141.772 -47.1359V20.9143H-209.541L-209.541 -47.1359H-141.772ZM-141.772 -116.586V-48.5359H-209.541V-116.586H-141.772ZM-210.941 -116.586H-278.71V-48.5359H-210.941V-116.586ZM-210.941 -47.1359H-278.71L-278.71 20.9143H-210.941L-210.941 -47.1359ZM-210.941 22.3143H-278.71V90.3646H-210.941V22.3143ZM-210.941 91.7646H-278.71V159.815H-210.941V91.7646ZM-210.941 161.215H-278.71V229.265H-210.941V161.215ZM-210.941 230.665H-278.71V298.715H-210.941V230.665ZM-210.941 300.115H-278.71L-278.71 368.166H-210.941L-210.941 300.115ZM-280.11 300.115L-280.11 368.166H-347.879V300.115H-280.11ZM-280.11 230.665V298.715H-347.879L-347.879 230.665H-280.11ZM-280.11 161.215V229.265H-347.879V161.215H-280.11ZM-280.11 91.7646V159.815H-347.879L-347.879 91.7646H-280.11ZM-280.11 22.3143V90.3646H-347.879V22.3143H-280.11ZM-280.11 -47.1359L-280.11 20.9143H-347.879L-347.879 -47.1359H-280.11ZM-280.11 -116.586V-48.5359H-347.879V-116.586H-280.11Z" fill="url(#paint0_radial_446_9566)"/>
<defs>
<radialGradient id="paint0_radial_446_9566" cx="0" cy="0" r="1" gradientUnits="userSpaceOnUse" gradientTransform="translate(199.255 826.611) rotate(180) scale(786.589 746.502)">
<stop stop-color="#EDECF3"/>
<stop offset="1" stop-color="#E6E5F5" stop-opacity="0.01"/>
</radialGradient>
</defs>
</svg>
