<svg width="432" height="304" viewBox="0 0 432 304" fill="none" xmlns="http://www.w3.org/2000/svg">
<g clip-path="url(#clip0_446_9564)">
<rect width="431.848" height="303.915" transform="translate(0.151733)" fill="#2D66C4"/>
<path opacity="0.4" d="M-267.548 228.517L-229.413 237.573C-225.644 238.468 -221.684 238.079 -218.161 236.468L-172.401 215.538C-170.131 214.5 -167.663 213.962 -165.167 213.962H-128.969C-124.874 213.962 -120.911 212.518 -117.776 209.882L-81.9732 179.779C-77.6696 176.161 -71.8821 174.846 -66.4375 176.25L-40.4955 182.94C-36.0406 184.089 -31.312 183.426 -27.3449 181.096L6.1223 161.441C11.0408 158.553 17.063 158.259 22.2389 160.656L50.6062 173.794C57.7311 177.094 66.1833 175.21 71.2332 169.198L97.0787 138.425C100.818 133.973 106.536 131.683 112.315 132.325L173.978 139.169C177.682 139.581 181.421 138.791 184.642 136.917L245.35 101.604C247.093 100.59 248.998 99.8871 250.982 99.5263L378.186 76.389C381.585 75.7708 385.091 76.1788 388.257 77.5609L427.919 94.8751C434.98 97.9571 443.226 96.0275 448.186 90.1328L483.882 47.7076C487.861 42.978 494.052 40.7158 500.143 41.7652L572.045 54.1527C577.754 55.1363 583.579 53.2126 587.579 49.0221L613.42 21.9517C618.036 17.1154 625.017 15.3537 631.375 17.4199L658.338 26.1814C662.567 27.5555 667.161 27.2578 671.177 25.3495L705.26 9.15427C708.39 7.66713 711.893 7.14873 715.319 7.66555L753.506 13.4256C756.183 13.8294 758.917 13.6027 761.49 12.7638L800.34 0.0999756" stroke="url(#paint0_linear_446_9564)" stroke-width="2.1" stroke-linecap="round" stroke-linejoin="round"/>
<path fill-rule="evenodd" clip-rule="evenodd" d="M-349.279 369.566L-349.279 476.539H-347.879L-347.879 369.566H-280.11V476.539H-278.71V369.566H-210.941V476.539H-209.541V369.566H-141.772V476.539H-140.372V369.566H-73.6506V476.539H-72.2506V369.566H-4.48154V476.539H-3.08154V369.566H64.6876V476.539H66.0876V369.566H133.857V476.539H135.257V369.566H201.978V476.539H203.378V369.566H271.147V476.539H272.547V369.566H340.316V476.539H341.716V369.566H408.437V476.539H409.837V369.566H477.606V476.539H479.006V369.566H546.775V476.539H548.175V369.566H615.944V476.539H617.344V369.566H684.065V476.539H685.465V369.566H753.234V476.539H754.634V369.566H849.652V368.166H754.634V300.115H849.652V298.715H754.634V230.665H849.652V229.265H754.634V161.215H849.652V159.815H754.634V91.7646H849.652V90.3646H754.634V22.3143H849.652V20.9143H754.634V-47.1359H849.652V-48.5359H754.634V-116.586H849.652V-117.986H754.634V-216.2H753.234V-117.986H685.465V-216.2H684.065V-117.986H617.344V-216.2H615.944V-117.986H548.175V-216.2H546.775V-117.986H479.006V-216.2H477.606V-117.986H409.837V-216.2H408.437V-117.986H341.716V-216.2H340.316V-117.986H272.547V-216.2H271.147V-117.986H203.378V-216.2H201.978V-117.986H135.257V-216.2H133.857V-117.986H66.0876V-216.2H64.6876V-117.986H-3.08151V-216.2H-4.48151V-117.986H-72.2506V-216.2H-73.6506V-117.986H-140.372V-216.2H-141.772V-117.986H-209.541V-216.2H-210.941V-117.986H-278.71V-216.2H-280.11V-117.986H-347.879L-347.879 -216.2H-349.279L-349.279 -117.986H-444.648V-116.586H-349.279V-48.5359H-444.648V-47.1359H-349.279L-349.279 20.9143H-444.648V22.3143H-349.279V90.3646H-444.648V91.7646H-349.279L-349.279 159.815H-444.648V161.215H-349.279V229.265H-444.648V230.665H-349.279L-349.279 298.715H-444.648V300.115H-349.279V368.166H-444.648V369.566H-349.279ZM753.234 -116.586H685.465V-48.5359H753.234V-116.586ZM753.234 -47.1359H685.465V20.9143H753.234V-47.1359ZM753.234 22.3143H685.465V90.3646H753.234V22.3143ZM753.234 91.7646H685.465V159.815H753.234V91.7646ZM753.234 161.215H685.465V229.265H753.234V161.215ZM753.234 230.665H685.465V298.715H753.234V230.665ZM753.234 300.115H685.465V368.166H753.234V300.115ZM684.065 300.115V368.166H617.344V300.115H684.065ZM684.065 230.665V298.715H617.344V230.665H684.065ZM684.065 161.215V229.265H617.344V161.215H684.065ZM684.065 91.7646V159.815H617.344V91.7646H684.065ZM684.065 22.3143V90.3646H617.344V22.3143H684.065ZM684.065 -47.1359V20.9143H617.344V-47.1359H684.065ZM684.065 -116.586V-48.5359H617.344V-116.586H684.065ZM615.944 -116.586H548.175V-48.5359H615.944V-116.586ZM615.944 -47.1359H548.175V20.9143H615.944V-47.1359ZM615.944 22.3143H548.175V90.3646H615.944V22.3143ZM615.944 91.7646H548.175L548.175 159.815H615.944V91.7646ZM615.944 161.215H548.175V229.265H615.944V161.215ZM615.944 230.665H548.175V298.715H615.944V230.665ZM615.944 300.115H548.175V368.166H615.944V300.115ZM546.775 300.115V368.166H479.006V300.115H546.775ZM546.775 230.665V298.715H479.006V230.665H546.775ZM546.775 161.215V229.265H479.006V161.215H546.775ZM546.775 91.7646L546.775 159.815H479.006L479.006 91.7646H546.775ZM546.775 22.3143V90.3646H479.006V22.3143H546.775ZM546.775 -47.1359V20.9143H479.006V-47.1359H546.775ZM546.775 -116.586V-48.5359H479.006V-116.586H546.775ZM477.606 -116.586H409.837V-48.5359H477.606V-116.586ZM477.606 -47.1359H409.837V20.9143H477.606V-47.1359ZM477.606 22.3143H409.837V90.3646H477.606V22.3143ZM477.606 91.7646H409.837L409.837 159.815H477.606L477.606 91.7646ZM477.606 161.215H409.837V229.265H477.606V161.215ZM477.606 230.665H409.837V298.715H477.606V230.665ZM477.606 300.115H409.837V368.166H477.606V300.115ZM408.437 300.115V368.166H341.716V300.115H408.437ZM408.437 230.665V298.715H341.716V230.665H408.437ZM408.437 161.215V229.265H341.716V161.215H408.437ZM408.437 91.7646L408.437 159.815H341.716L341.716 91.7646H408.437ZM408.437 22.3143V90.3646H341.716V22.3143H408.437ZM408.437 -47.1359V20.9143H341.716V-47.1359H408.437ZM408.437 -116.586V-48.5359H341.716V-116.586H408.437ZM340.316 -116.586H272.547V-48.5359H340.316V-116.586ZM340.316 -47.1359H272.547V20.9143H340.316V-47.1359ZM340.316 22.3143H272.547V90.3646H340.316V22.3143ZM340.316 91.7646H272.547L272.547 159.815H340.316L340.316 91.7646ZM340.316 161.215H272.547V229.265H340.316V161.215ZM340.316 230.665H272.547V298.715H340.316V230.665ZM340.316 300.115H272.547V368.166H340.316V300.115ZM271.147 300.115V368.166H203.378V300.115H271.147ZM271.147 230.665V298.715H203.378V230.665H271.147ZM271.147 161.215V229.265H203.378V161.215H271.147ZM271.147 91.7646L271.147 159.815H203.378L203.378 91.7646H271.147ZM271.147 22.3143V90.3646H203.378V22.3143H271.147ZM271.147 -47.1359V20.9143H203.378V-47.1359H271.147ZM271.147 -116.586V-48.5359H203.378V-116.586H271.147ZM201.978 -116.586H135.257V-48.5359H201.978V-116.586ZM201.978 -47.1359H135.257V20.9143H201.978V-47.1359ZM201.978 22.3143H135.257V90.3646H201.978V22.3143ZM201.978 91.7646H135.257L135.257 159.815H201.978L201.978 91.7646ZM201.978 161.215H135.257V229.265H201.978V161.215ZM201.978 230.665H135.257V298.715H201.978V230.665ZM201.978 300.115H135.257V368.166H201.978V300.115ZM133.857 300.115V368.166H66.0876V300.115H133.857ZM133.857 230.665V298.715H66.0876V230.665H133.857ZM133.857 161.215V229.265H66.0876V161.215H133.857ZM133.857 91.7646L133.857 159.815H66.0876L66.0876 91.7646H133.857ZM133.857 22.3143V90.3646H66.0876V22.3143H133.857ZM133.857 -47.1359V20.9143H66.0876V-47.1359H133.857ZM133.857 -116.586V-48.5359H66.0876V-116.586H133.857ZM64.6876 -116.586H-3.08151V-48.5359H64.6876V-116.586ZM64.6876 -47.1359H-3.08151V20.9143H64.6876V-47.1359ZM64.6876 22.3143H-3.08151V90.3646H64.6876V22.3143ZM64.6876 91.7646H-3.08151L-3.08154 159.815H64.6876L64.6876 91.7646ZM64.6876 161.215H-3.08154V229.265H64.6876V161.215ZM64.6876 230.665H-3.08154V298.715H64.6876V230.665ZM64.6876 300.115H-3.08154V368.166H64.6876V300.115ZM-4.48154 300.115V368.166H-72.2506V300.115H-4.48154ZM-4.48154 230.665V298.715H-72.2506V230.665H-4.48154ZM-4.48154 161.215V229.265H-72.2506V161.215H-4.48154ZM-4.48151 91.7646L-4.48154 159.815H-72.2506L-72.2506 91.7646H-4.48151ZM-4.48151 22.3143V90.3646H-72.2506V22.3143H-4.48151ZM-4.48151 -47.1359V20.9143H-72.2506V-47.1359H-4.48151ZM-4.48151 -116.586V-48.5359H-72.2506V-116.586H-4.48151ZM-73.6506 -116.586H-140.372V-48.5359H-73.6506V-116.586ZM-73.6506 -47.1359H-140.372V20.9143H-73.6506V-47.1359ZM-73.6506 22.3143H-140.372V90.3646H-73.6506V22.3143ZM-73.6506 91.7646H-140.372L-140.372 159.815H-73.6506L-73.6506 91.7646ZM-73.6506 161.215H-140.372V229.265H-73.6506V161.215ZM-73.6506 230.665H-140.372V298.715H-73.6506V230.665ZM-73.6506 300.115H-140.372V368.166H-73.6506V300.115ZM-141.772 300.115V368.166H-209.541L-209.541 300.115H-141.772ZM-141.772 230.665V298.715H-209.541V230.665H-141.772ZM-141.772 161.215V229.265H-209.541V161.215H-141.772ZM-141.772 91.7646L-141.772 159.815H-209.541V91.7646H-141.772ZM-141.772 22.3143V90.3646H-209.541V22.3143H-141.772ZM-141.772 -47.1359V20.9143H-209.541L-209.541 -47.1359H-141.772ZM-141.772 -116.586V-48.5359H-209.541V-116.586H-141.772ZM-210.941 -116.586H-278.71V-48.5359H-210.941V-116.586ZM-210.941 -47.1359H-278.71L-278.71 20.9143H-210.941L-210.941 -47.1359ZM-210.941 22.3143H-278.71V90.3646H-210.941V22.3143ZM-210.941 91.7646H-278.71V159.815H-210.941V91.7646ZM-210.941 161.215H-278.71V229.265H-210.941V161.215ZM-210.941 230.665H-278.71V298.715H-210.941V230.665ZM-210.941 300.115H-278.71L-278.71 368.166H-210.941L-210.941 300.115ZM-280.11 300.115L-280.11 368.166H-347.879V300.115H-280.11ZM-280.11 230.665V298.715H-347.879L-347.879 230.665H-280.11ZM-280.11 161.215V229.265H-347.879V161.215H-280.11ZM-280.11 91.7646V159.815H-347.879L-347.879 91.7646H-280.11ZM-280.11 22.3143V90.3646H-347.879V22.3143H-280.11ZM-280.11 -47.1359L-280.11 20.9143H-347.879L-347.879 -47.1359H-280.11ZM-280.11 -116.586V-48.5359H-347.879V-116.586H-280.11Z" fill="url(#paint1_radial_446_9564)"/>
<path opacity="0.7" d="M-247.97 262.395L-209.411 252.365C-207.416 251.846 -205.529 250.976 -203.838 249.797L-158.613 218.247C-155.694 216.211 -152.22 215.119 -148.662 215.119H-120.372C-116.102 215.119 -111.98 213.548 -108.794 210.705L-71.1553 177.125C-65.4128 172.002 -56.986 171.261 -50.4382 175.305L25.6262 222.279C32.107 226.282 40.4382 225.601 46.1836 220.6L75.7197 194.891C79.8358 191.309 85.3949 189.865 90.734 190.994L123.966 198.015C128.446 198.962 133.118 198.104 136.969 195.627L180.424 167.68C186.417 163.825 194.155 164.017 199.951 168.163L226.095 186.867C232.647 191.554 241.56 191.129 247.636 185.839L260.75 174.42C265.021 170.702 270.834 169.295 276.333 170.65L305.553 177.852C310.807 179.147 316.366 177.922 320.589 174.538L354.639 147.258C357.492 144.972 360.993 143.643 364.644 143.461L403.396 141.521C405.476 141.417 407.559 141.687 409.544 142.319L441.958 152.645C448.579 154.754 455.819 152.72 460.373 147.472L492.196 110.799C497.088 105.161 505.033 103.274 511.939 106.109L531.404 114.103C572.079 130.806 618.704 123.063 651.798 94.1091L673.585 75.0466C679.908 69.5149 689.281 69.2931 695.858 74.5195L721.506 94.8998C726.516 98.881 733.308 99.7893 739.188 97.2643L773.394 82.5762C775.868 81.5142 778.061 79.8926 779.801 77.839L819.918 30.4979" stroke="url(#paint2_linear_446_9564)" stroke-width="2.31897" stroke-linecap="round" stroke-linejoin="round"/>
<path opacity="0.4" d="M-244.491 238.046L-204.05 221.558C-199.889 219.862 -195.233 219.842 -191.057 221.502L-157.013 235.039C-152.22 236.945 -146.83 236.625 -142.296 234.167L-112.842 218.197C-108.89 216.054 -104.261 215.524 -99.9269 216.72L-68.6854 225.338C-62.7793 226.967 -56.4517 225.368 -52.0279 221.13L-23.858 194.139C-18.0789 188.602 -9.26695 187.723 -2.50851 192.011L21.5981 207.304C28.538 211.706 37.6125 210.65 43.3558 204.771L73.4331 173.984C78.6736 168.62 86.7621 167.219 93.5015 170.508L114.617 180.812C119.633 183.26 125.52 183.152 130.443 180.52L161.212 164.075C167.927 160.486 176.195 161.682 181.618 167.025L219.961 204.808C227.511 212.248 239.903 211.262 246.182 202.722L306.96 120.049C308.765 117.593 311.185 115.655 313.976 114.428L439.629 59.2152C444.265 57.1782 449.558 57.2627 454.127 59.4466L563.356 111.662L602.356 126.888C618.831 133.319 637.422 131.166 651.99 121.14L721.362 73.399" stroke="url(#paint3_linear_446_9564)" stroke-width="2.31897" stroke-linecap="round" stroke-linejoin="round"/>
<g filter="url(#filter0_b_446_9564)">
<path d="M349.152 130.3C349.453 131.703 350.549 132.799 351.952 133.1C350.549 133.401 349.453 134.497 349.152 135.9C348.851 134.497 347.755 133.401 346.352 133.1C347.755 132.799 348.851 131.703 349.152 130.3Z" fill="url(#paint4_linear_446_9564)"/>
</g>
<g filter="url(#filter1_b_446_9564)">
<path d="M359.532 134.129C360.138 139.462 363.814 143.943 368.924 145.58C363.592 146.186 359.11 149.862 357.473 154.973C356.868 149.64 353.192 145.159 348.081 143.522C353.413 142.916 357.895 139.24 359.532 134.129Z" fill="url(#paint5_linear_446_9564)"/>
</g>
<g filter="url(#filter2_b_446_9564)">
<path d="M76.5017 184.2C77.5937 189.285 81.5662 193.258 86.6517 194.35C81.5662 195.442 77.5937 199.415 76.5017 204.5C75.4096 199.415 71.4371 195.442 66.3517 194.35C71.4371 193.258 75.4096 189.285 76.5017 184.2Z" fill="url(#paint6_linear_446_9564)"/>
</g>
<g filter="url(#filter3_b_446_9564)">
<path d="M71.2517 206.6C71.7789 209.055 73.6966 210.973 76.1517 211.5C73.6966 212.027 71.7789 213.945 71.2517 216.4C70.7245 213.945 68.8067 212.027 66.3517 211.5C68.8067 210.973 70.7245 209.055 71.2517 206.6Z" fill="url(#paint7_linear_446_9564)"/>
</g>
<g filter="url(#filter4_b_446_9564)">
<g style="mix-blend-mode:screen" opacity="0.05" filter="url(#filter5_b_446_9564)">
<circle cx="148.252" cy="156.2" r="77.7" fill="white" fill-opacity="0.4"/>
</g>
<g style="mix-blend-mode:screen" opacity="0.15" filter="url(#filter6_b_446_9564)">
<circle cx="148.252" cy="156.2" r="54.6" fill="white" fill-opacity="0.4"/>
</g>
<circle opacity="0.2" cx="147.078" cy="154.872" r="27.4235" fill="white" fill-opacity="0.6"/>
<circle cx="147.078" cy="154.872" r="9.2759" fill="white" fill-opacity="0.6"/>
</g>
<g style="mix-blend-mode:color-burn">
<rect width="431.848" height="303.915" transform="translate(0.151733)" fill="#2E71E5" fill-opacity="0.1"/>
</g>
</g>
<defs>
<filter id="filter0_b_446_9564" x="340.752" y="124.7" width="16.8001" height="16.8" filterUnits="userSpaceOnUse" color-interpolation-filters="sRGB">
<feFlood flood-opacity="0" result="BackgroundImageFix"/>
<feGaussianBlur in="BackgroundImageFix" stdDeviation="2.8"/>
<feComposite in2="SourceAlpha" operator="in" result="effect1_backgroundBlur_446_9564"/>
<feBlend mode="normal" in="SourceGraphic" in2="effect1_backgroundBlur_446_9564" result="shape"/>
</filter>
<filter id="filter1_b_446_9564" x="342.481" y="128.529" width="32.0437" height="32.0436" filterUnits="userSpaceOnUse" color-interpolation-filters="sRGB">
<feFlood flood-opacity="0" result="BackgroundImageFix"/>
<feGaussianBlur in="BackgroundImageFix" stdDeviation="2.8"/>
<feComposite in2="SourceAlpha" operator="in" result="effect1_backgroundBlur_446_9564"/>
<feBlend mode="normal" in="SourceGraphic" in2="effect1_backgroundBlur_446_9564" result="shape"/>
</filter>
<filter id="filter2_b_446_9564" x="60.7517" y="178.6" width="31.5" height="31.5" filterUnits="userSpaceOnUse" color-interpolation-filters="sRGB">
<feFlood flood-opacity="0" result="BackgroundImageFix"/>
<feGaussianBlur in="BackgroundImageFix" stdDeviation="2.8"/>
<feComposite in2="SourceAlpha" operator="in" result="effect1_backgroundBlur_446_9564"/>
<feBlend mode="normal" in="SourceGraphic" in2="effect1_backgroundBlur_446_9564" result="shape"/>
</filter>
<filter id="filter3_b_446_9564" x="60.7517" y="201" width="21" height="21" filterUnits="userSpaceOnUse" color-interpolation-filters="sRGB">
<feFlood flood-opacity="0" result="BackgroundImageFix"/>
<feGaussianBlur in="BackgroundImageFix" stdDeviation="2.8"/>
<feComposite in2="SourceAlpha" operator="in" result="effect1_backgroundBlur_446_9564"/>
<feBlend mode="normal" in="SourceGraphic" in2="effect1_backgroundBlur_446_9564" result="shape"/>
</filter>
<filter id="filter4_b_446_9564" x="62.8518" y="70.8" width="170.8" height="170.8" filterUnits="userSpaceOnUse" color-interpolation-filters="sRGB">
<feFlood flood-opacity="0" result="BackgroundImageFix"/>
<feGaussianBlur in="BackgroundImageFix" stdDeviation="3.85"/>
<feComposite in2="SourceAlpha" operator="in" result="effect1_backgroundBlur_446_9564"/>
<feBlend mode="normal" in="SourceGraphic" in2="effect1_backgroundBlur_446_9564" result="shape"/>
</filter>
<filter id="filter5_b_446_9564" x="53.7518" y="61.7" width="189" height="189" filterUnits="userSpaceOnUse" color-interpolation-filters="sRGB">
<feFlood flood-opacity="0" result="BackgroundImageFix"/>
<feGaussianBlur in="BackgroundImageFix" stdDeviation="8.4"/>
<feComposite in2="SourceAlpha" operator="in" result="effect1_backgroundBlur_446_9564"/>
<feBlend mode="normal" in="SourceGraphic" in2="effect1_backgroundBlur_446_9564" result="shape"/>
</filter>
<filter id="filter6_b_446_9564" x="76.8517" y="84.8" width="142.8" height="142.8" filterUnits="userSpaceOnUse" color-interpolation-filters="sRGB">
<feFlood flood-opacity="0" result="BackgroundImageFix"/>
<feGaussianBlur in="BackgroundImageFix" stdDeviation="8.4"/>
<feComposite in2="SourceAlpha" operator="in" result="effect1_backgroundBlur_446_9564"/>
<feBlend mode="normal" in="SourceGraphic" in2="effect1_backgroundBlur_446_9564" result="shape"/>
</filter>
<linearGradient id="paint0_linear_446_9564" x1="-48.9587" y1="313.604" x2="1.1223" y2="-110.645" gradientUnits="userSpaceOnUse">
<stop stop-color="white" stop-opacity="0.01"/>
<stop offset="0.177083" stop-color="white"/>
<stop offset="1" stop-color="white" stop-opacity="0.01"/>
</linearGradient>
<radialGradient id="paint1_radial_446_9564" cx="0" cy="0" r="1" gradientUnits="userSpaceOnUse" gradientTransform="translate(199.255 826.611) rotate(180) scale(786.589 746.502)">
<stop stop-color="#EDECF3"/>
<stop offset="1" stop-color="#E6E5F5" stop-opacity="0.01"/>
</radialGradient>
<linearGradient id="paint2_linear_446_9564" x1="235.756" y1="378.344" x2="341.4" y2="-62.3923" gradientUnits="userSpaceOnUse">
<stop stop-color="white" stop-opacity="0.01"/>
<stop offset="0.0375866" stop-color="white" stop-opacity="0.615533"/>
<stop offset="0.0805049" stop-color="white" stop-opacity="0.767526"/>
<stop offset="0.146149" stop-color="white"/>
<stop offset="0.747659" stop-color="white"/>
<stop offset="0.842081" stop-color="white" stop-opacity="0.852977"/>
<stop offset="0.896184" stop-color="white" stop-opacity="0.768733"/>
<stop offset="0.927591" stop-color="white" stop-opacity="0.144475"/>
<stop offset="1" stop-color="white" stop-opacity="0.01"/>
</linearGradient>
<linearGradient id="paint3_linear_446_9564" x1="-46.7876" y1="294.939" x2="-14.4963" y2="-29.6895" gradientUnits="userSpaceOnUse">
<stop stop-color="white" stop-opacity="0.01"/>
<stop offset="0.177083" stop-color="white"/>
<stop offset="1" stop-color="white" stop-opacity="0.01"/>
</linearGradient>
<linearGradient id="paint4_linear_446_9564" x1="348.258" y1="130.418" x2="348.258" y2="135.803" gradientUnits="userSpaceOnUse">
<stop stop-color="white" stop-opacity="0.83"/>
<stop offset="1" stop-color="white" stop-opacity="0.21"/>
</linearGradient>
<linearGradient id="paint5_linear_446_9564" x1="356.162" y1="134.238" x2="354.183" y2="154.283" gradientUnits="userSpaceOnUse">
<stop stop-color="white" stop-opacity="0.83"/>
<stop offset="1" stop-color="white" stop-opacity="0.21"/>
</linearGradient>
<linearGradient id="paint6_linear_446_9564" x1="73.2619" y1="184.626" x2="73.2619" y2="204.148" gradientUnits="userSpaceOnUse">
<stop stop-color="white" stop-opacity="0.83"/>
<stop offset="1" stop-color="white" stop-opacity="0.21"/>
</linearGradient>
<linearGradient id="paint7_linear_446_9564" x1="69.6876" y1="206.806" x2="69.6876" y2="216.23" gradientUnits="userSpaceOnUse">
<stop stop-color="white" stop-opacity="0.83"/>
<stop offset="1" stop-color="white" stop-opacity="0.21"/>
</linearGradient>
<clipPath id="clip0_446_9564">
<rect width="431.848" height="303.915" fill="white" transform="translate(0.151733)"/>
</clipPath>
</defs>
</svg>
