<svg width="1204" height="176" viewBox="0 0 1204 176" fill="none" xmlns="http://www.w3.org/2000/svg">
<path fill-rule="evenodd" clip-rule="evenodd" d="M108.863 44C108.863 53.6986 101 61.561 91.3018 61.561C81.6031 61.561 73.7408 53.6986 73.7408 44C73.7408 34.3013 81.6031 26.439 91.3018 26.439C101 26.439 108.863 34.3013 108.863 44ZM95.2882 33.7104C96.1277 33.1123 97.0469 33.6724 96.7802 34.6197L94.1398 44H98.8196C99.8019 44 99.9452 45.2923 99.0347 45.9409L87.3155 54.2896C86.4759 54.8877 85.5568 54.3276 85.8234 53.3803L87.9839 45.7052L92.8845 43.9761H86.8701V44H83.7841C82.8017 44 82.6585 42.7078 83.5689 42.0591L95.2882 33.7104ZM129.17 51.0243H118.676V35.957H122.406V47.8633H129.17V51.0243ZM133.112 45.6507C133.112 47.6105 133.892 48.9171 135.388 48.9171C136.884 48.9171 137.685 47.6105 137.685 45.6507C137.685 43.6909 136.884 42.3633 135.388 42.3633C133.892 42.3633 133.112 43.6909 133.112 45.6507ZM141.162 45.6507C141.162 48.896 138.886 51.3615 135.409 51.3615C131.953 51.3615 129.635 48.896 129.635 45.6507C129.635 42.4054 131.953 39.9399 135.409 39.9399C138.886 39.9399 141.162 42.4054 141.162 45.6507ZM147.181 54.7543C148.782 54.7543 150.194 54.396 151.142 53.5531C152.006 52.7734 152.575 51.5933 152.575 49.9707V40.2349H149.288V41.3939H149.246C148.613 40.4877 147.644 39.9188 146.211 39.9188C143.535 39.9188 141.68 42.1525 141.68 45.3135C141.68 48.622 143.935 50.4343 146.359 50.4343C147.665 50.4343 148.487 49.9074 149.119 49.191H149.204V50.2657C149.204 51.5722 148.592 52.3309 147.138 52.3309C146 52.3309 145.431 51.8462 145.242 51.2772H141.912C142.249 53.532 144.209 54.7543 147.181 54.7543ZM147.159 47.8844C145.874 47.8844 145.031 46.8308 145.031 45.2081C145.031 43.5644 145.874 42.5108 147.159 42.5108C148.592 42.5108 149.351 43.733 149.351 45.1871C149.351 46.7043 148.656 47.8844 147.159 47.8844ZM157.059 45.6507C157.059 47.6105 157.839 48.9171 159.335 48.9171C160.831 48.9171 161.632 47.6105 161.632 45.6507C161.632 43.6909 160.831 42.3633 159.335 42.3633C157.839 42.3633 157.059 43.6909 157.059 45.6507ZM165.109 45.6507C165.109 48.896 162.833 51.3615 159.356 51.3615C155.9 51.3615 153.582 48.896 153.582 45.6507C153.582 42.4054 155.9 39.9399 159.356 39.9399C162.833 39.9399 165.109 42.4054 165.109 45.6507ZM166.112 51.0243H169.546V40.2348H166.112V51.0243ZM166.112 38.7386H169.546V35.957H166.112V38.7386ZM174.472 54.5857H171.037V40.2349H174.325V41.5414H174.388C175.126 40.572 176.179 39.9188 177.654 39.9188C180.52 39.9188 182.269 42.3843 182.269 45.6296C182.269 49.1277 180.394 51.3615 177.57 51.3615C176.179 51.3615 175.189 50.8136 174.514 49.9074H174.472V54.5857ZM174.367 45.756C174.367 47.5051 175.21 48.7063 176.685 48.7063C177.992 48.7063 178.792 47.5894 178.792 45.756C178.792 43.9016 178.097 42.6793 176.622 42.6793C175.126 42.6793 174.367 44.007 174.367 45.756ZM187.862 51.3615C190.685 51.3615 192.772 50.1392 192.772 47.7791C192.772 45.0185 190.538 44.5338 188.641 44.2177C188.473 44.1866 188.307 44.1577 188.145 44.1296L188.143 44.1293L188.143 44.1293L188.143 44.1293C186.988 43.9288 186.049 43.7658 186.049 43.1008C186.049 42.4265 186.703 42.1104 187.546 42.1104C188.494 42.1104 189.147 42.4054 189.274 43.3748H192.435C192.266 41.2464 190.622 39.9188 187.567 39.9188C185.017 39.9188 182.909 41.0989 182.909 43.3748C182.909 45.9035 184.911 46.4093 186.787 46.7254C186.937 46.7518 187.085 46.7767 187.231 46.801C188.479 47.0097 189.526 47.185 189.526 48.053C189.526 48.7484 188.873 49.1277 187.841 49.1277C186.703 49.1277 185.986 48.6009 185.86 47.5262H182.614C182.72 49.9074 184.701 51.3615 187.862 51.3615ZM200.662 49.6968C199.882 50.7504 198.934 51.3405 197.438 51.3405C194.951 51.3405 193.645 49.7179 193.645 47.3155V40.2349H197.058V46.599C197.058 47.7791 197.585 48.4324 198.681 48.4324C199.861 48.4324 200.578 47.5473 200.578 46.2619V40.2349H204.012V51.0244H200.725V49.6968H200.662ZM205.506 51.0243H208.941V44.9763C208.941 43.6909 209.573 42.7847 210.648 42.7847C211.68 42.7847 212.165 43.4591 212.165 44.6181V51.0243H215.6V44.9763C215.6 43.6909 216.211 42.7847 217.307 42.7847C218.34 42.7847 218.824 43.4591 218.824 44.6181V51.0243H222.259V44.007C222.259 41.5835 221.037 39.9188 218.592 39.9188C217.202 39.9188 216.043 40.5088 215.2 41.8153H215.158C214.61 40.6563 213.535 39.9188 212.123 39.9188C210.564 39.9188 209.531 40.6563 208.857 41.7732H208.793V40.2349H205.506V51.0243Z" fill="#A7ADC5"/>
<path fill-rule="evenodd" clip-rule="evenodd" d="M345.009 28.6479C345.009 27.428 346.008 26.439 347.242 26.439H351.132C352.01 26.439 352.861 26.7399 353.539 27.2905L354.723 28.2504L354.752 28.2771C354.78 28.268 354.807 28.2591 354.834 28.2504C356.969 27.574 359.56 27.4454 362.204 27.4454C364.848 27.4454 367.438 27.574 369.573 28.2504C369.6 28.2591 369.628 28.268 369.655 28.2771L369.685 28.2504L370.868 27.2905C371.547 26.7399 372.398 26.439 373.275 26.439H377.166C378.399 26.439 379.399 27.428 379.399 28.6479V30.0134C379.399 31.07 378.949 32.0776 378.159 32.7892L377.205 33.6496C376.739 34.0697 376.179 34.3754 375.572 34.5421L375.346 34.6041C376.23 36.692 376.719 38.9238 376.719 40.7293C376.719 47.992 372.176 51.1286 368.173 53.8924L368.173 53.8925C365.021 56.069 362.204 58.0141 362.204 61.561C362.204 58.0141 359.387 56.069 356.234 53.8925L356.234 53.8924C352.231 51.1286 347.688 47.992 347.688 40.7293C347.688 38.9238 348.177 36.692 349.062 34.6041L348.836 34.5421C348.228 34.3754 347.669 34.0697 347.203 33.6496L346.248 32.7892C345.459 32.0776 345.009 31.07 345.009 30.0134V28.6479ZM365.107 46.6668C365.107 47.0138 364.954 47.3465 364.682 47.5919C364.409 47.8373 364.04 47.9751 363.655 47.9751C363.323 47.9751 363.002 47.8723 362.746 47.6863C363.182 48.8427 364.3 49.9384 366 48.1764C367.501 46.5391 365.933 43.0858 364.406 41.0366C363.897 40.3536 363.062 40.0248 362.204 40.0248C361.346 40.0248 360.51 40.3536 360.001 41.0366C358.474 43.0858 356.907 46.5391 358.407 48.1764C360.107 49.9384 361.225 48.8427 361.662 47.6863C361.405 47.8723 361.085 47.9751 360.752 47.9751C360.367 47.9751 359.998 47.8373 359.726 47.5919C359.454 47.3465 359.301 47.0138 359.301 46.6668H365.107ZM356.645 36.4445H352.601L355.788 38.9686C356.489 39.524 357.514 39.3464 357.948 38.5944C358.496 37.6449 357.769 36.4445 356.645 36.4445ZM367.762 36.4445H371.806L368.619 38.9686C367.918 39.524 366.893 39.3464 366.459 38.5944C365.911 37.6449 366.639 36.4445 367.762 36.4445ZM384.216 51.317H387.798V37.8038H384.216V51.317ZM384.216 35.6965H387.798V32.4828H384.216V35.6965ZM393.689 55.7424H390.107V37.8039H393.558V39.4897H393.637C394.506 38.3044 395.77 37.4351 397.614 37.4351C401.197 37.4351 403.488 40.359 403.488 44.5736C403.488 48.9463 401.118 51.7122 397.64 51.7122C395.744 51.7122 394.506 50.9483 393.742 49.7892H393.689V55.7424ZM393.61 44.679C393.61 47.1287 394.743 48.7356 396.877 48.7356C398.694 48.7356 399.853 47.2341 399.853 44.679C399.853 42.1239 398.958 40.3327 396.745 40.3327C394.506 40.3327 393.61 42.2556 393.61 44.679ZM410.635 51.7122C414.006 51.7122 416.324 50.079 416.324 47.3658C416.324 44.2048 413.822 43.5726 411.557 43.0985C411.247 43.0348 410.94 42.9787 410.644 42.9244L410.644 42.9243C409.103 42.642 407.842 42.4111 407.842 41.439C407.842 40.4644 408.764 39.9375 410.161 39.9375C411.688 39.9375 412.61 40.4644 412.768 41.9131H416.008C415.745 39.2 413.769 37.4351 410.213 37.4351C407.131 37.4351 404.708 38.8312 404.708 41.7551C404.708 44.7053 407.079 45.3639 409.502 45.838C409.734 45.8844 409.964 45.9271 410.189 45.9688C411.75 46.2583 413.058 46.501 413.058 47.6292C413.058 48.5775 412.162 49.1834 410.582 49.1834C408.975 49.1834 407.869 48.4985 407.632 46.9444H404.313C404.523 49.8156 406.71 51.7122 410.635 51.7122ZM429.926 37.8039V51.317H426.476V49.7365H426.397C425.475 50.9746 424.421 51.6858 422.524 51.6858C419.521 51.6858 417.836 49.7629 417.836 46.8126V37.8039H421.392V46.2068C421.392 47.7873 422.103 48.6565 423.631 48.6565C425.317 48.6565 426.344 47.3922 426.344 45.6009V37.8039H429.926ZM432.243 51.317H435.826V43.4673C435.826 41.6761 436.801 40.517 438.249 40.517C439.566 40.517 440.33 41.3073 440.33 42.8351V51.317H443.913V43.4673C443.913 41.6761 444.835 40.517 446.336 40.517C447.653 40.517 448.417 41.3073 448.417 42.8351V51.317H452V42.2292C452 39.279 450.393 37.4351 447.548 37.4351C445.836 37.4351 444.413 38.3307 443.491 39.8058H443.439C442.78 38.3834 441.41 37.4351 439.698 37.4351C437.828 37.4351 436.511 38.3834 435.773 39.6214H435.694V37.8039H432.243V51.317ZM297.354 51.317H293.772V32.4828H297.354V51.317ZM306.114 51.7122C310.302 51.7122 313.173 48.6039 313.173 44.5736C313.173 40.5434 310.302 37.4351 306.114 37.4351C301.925 37.4351 299.054 40.5434 299.054 44.5736C299.054 48.6039 301.925 51.7122 306.114 51.7122ZM306.114 48.9727C303.901 48.9727 302.689 47.2078 302.689 44.5736C302.689 41.9395 303.901 40.1483 306.114 40.1483C308.3 40.1483 309.538 41.9395 309.538 44.5736C309.538 47.2078 308.3 48.9727 306.114 48.9727ZM325.665 54.399C324.532 55.4527 322.794 55.9268 320.792 55.9268C317.104 55.9268 314.838 54.3463 314.47 51.7122H318.026C318.316 52.5551 319.079 53.2136 320.739 53.2136C322.767 53.2136 323.742 52.239 323.742 50.3951V48.92H323.663C322.873 49.8156 321.845 50.5005 320.133 50.5005C317.13 50.5005 314.18 48.1297 314.18 44.0468C314.18 40.0166 316.603 37.4351 320.028 37.4351C321.714 37.4351 322.952 38.0936 323.768 39.2263H323.821V37.8039H327.272V50.2897C327.272 52.1863 326.666 53.477 325.665 54.399ZM317.683 43.9941C317.683 46.2858 318.895 47.6292 320.739 47.6292C323.004 47.6292 323.926 45.9697 323.926 43.9678C323.926 41.9922 322.873 40.3063 320.713 40.3063C318.895 40.3063 317.683 41.7287 317.683 43.9941ZM335.979 51.7122C340.168 51.7122 343.039 48.6039 343.039 44.5736C343.039 40.5434 340.168 37.4351 335.979 37.4351C331.791 37.4351 328.92 40.5434 328.92 44.5736C328.92 48.6039 331.791 51.7122 335.979 51.7122ZM335.979 48.9727C333.767 48.9727 332.555 47.2078 332.555 44.5736C332.555 41.9395 333.767 40.1483 335.979 40.1483C338.166 40.1483 339.404 41.9395 339.404 44.5736C339.404 47.2078 338.166 48.9727 335.979 48.9727ZM452.936 33.756C452.329 33.756 451.838 34.2474 451.838 34.8536C451.838 35.4597 452.329 35.9511 452.936 35.9511H455.131C455.737 35.9511 456.228 35.4597 456.228 34.8536C456.228 34.2474 455.737 33.756 455.131 33.756H452.936Z" fill="#A7ADC5"/>
<path fill-rule="evenodd" clip-rule="evenodd" d="M562.862 44C562.862 53.6987 555 61.561 545.301 61.561C535.603 61.561 527.74 53.6987 527.74 44C527.74 34.3014 535.603 26.4391 545.301 26.4391C555 26.4391 562.862 34.3014 562.862 44ZM548.012 34.5862C549.509 36.0832 549.509 38.5102 548.012 40.0072L545.301 42.7176L542.591 40.0072C541.094 38.5102 541.094 36.0832 542.591 34.5862C544.088 33.0892 546.515 33.0892 548.012 34.5862ZM554.715 46.7105C553.218 48.2075 550.791 48.2075 549.294 46.7105L546.584 44.0001L549.294 41.2895C550.791 39.7926 553.218 39.7926 554.715 41.2895C556.212 42.7865 556.212 45.2135 554.715 46.7105ZM548.012 47.9929C549.509 49.4899 549.509 51.9169 548.012 53.4139C546.515 54.9109 544.088 54.9109 542.591 53.4139C541.094 51.9169 541.094 49.4899 542.591 47.9929L545.301 45.2825L548.012 47.9929ZM535.888 41.2895C534.391 42.7865 534.391 45.2135 535.888 46.7105C537.385 48.2075 539.812 48.2075 541.309 46.7105L544.019 44.0001L541.309 41.2895C539.812 39.7926 537.385 39.7926 535.888 41.2895ZM583.17 51.9025H572.676V36.8352H576.406V48.7415H583.17V51.9025ZM587.112 46.5288C587.112 48.4886 587.891 49.7951 589.388 49.7951C590.884 49.7951 591.685 48.4886 591.685 46.5288C591.685 44.569 590.884 43.2414 589.388 43.2414C587.891 43.2414 587.112 44.569 587.112 46.5288ZM595.162 46.5288C595.162 49.7741 592.886 52.2396 589.409 52.2396C585.953 52.2396 583.635 49.7741 583.635 46.5288C583.635 43.2835 585.953 40.818 589.409 40.818C592.886 40.818 595.162 43.2835 595.162 46.5288ZM601.18 55.6324C602.782 55.6324 604.194 55.2741 605.142 54.4312C606.006 53.6515 606.575 52.4714 606.575 50.8487V41.1129H603.287V42.272H603.245C602.613 41.3658 601.644 40.7968 600.211 40.7968C597.534 40.7968 595.68 43.0306 595.68 46.1916C595.68 49.5001 597.935 51.3124 600.358 51.3124C601.665 51.3124 602.487 50.7855 603.119 50.069H603.203V51.1438C603.203 52.4503 602.592 53.2089 601.138 53.2089C600 53.2089 599.431 52.7243 599.241 52.1553H595.912C596.249 54.4101 598.209 55.6324 601.18 55.6324ZM601.159 48.7625C599.874 48.7625 599.031 47.7088 599.031 46.0862C599.031 44.4425 599.874 43.3888 601.159 43.3888C602.592 43.3888 603.351 44.6111 603.351 46.0651C603.351 47.5824 602.655 48.7625 601.159 48.7625ZM611.058 46.5288C611.058 48.4886 611.838 49.7951 613.334 49.7951C614.831 49.7951 615.631 48.4886 615.631 46.5288C615.631 44.569 614.831 43.2414 613.334 43.2414C611.838 43.2414 611.058 44.569 611.058 46.5288ZM619.108 46.5288C619.108 49.7741 616.832 52.2396 613.355 52.2396C609.899 52.2396 607.581 49.7741 607.581 46.5288C607.581 43.2835 609.899 40.818 613.355 40.818C616.832 40.818 619.108 43.2835 619.108 46.5288ZM620.112 51.9025H623.547V41.113H620.112V51.9025ZM620.112 39.6168H623.547V36.8352H620.112V39.6168ZM628.472 55.4638H625.037V41.1129H628.324V42.4195H628.387C629.125 41.4501 630.179 40.7968 631.654 40.7968C634.52 40.7968 636.269 43.2624 636.269 46.5077C636.269 50.0058 634.393 52.2396 631.569 52.2396C630.179 52.2396 629.188 51.6917 628.514 50.7855H628.472V55.4638ZM628.366 46.6341C628.366 48.3832 629.209 49.5844 630.684 49.5844C631.991 49.5844 632.792 48.4675 632.792 46.6341C632.792 44.7797 632.096 43.5574 630.621 43.5574C629.125 43.5574 628.366 44.885 628.366 46.6341ZM641.861 52.2396C644.685 52.2396 646.771 51.0173 646.771 48.6571C646.771 45.8966 644.537 45.4119 642.641 45.0958C642.472 45.0646 642.305 45.0356 642.142 45.0074C640.988 44.8069 640.049 44.6439 640.049 43.9789C640.049 43.3046 640.702 42.9885 641.545 42.9885C642.493 42.9885 643.146 43.2835 643.273 44.2528H646.434C646.265 42.1245 644.622 40.7968 641.566 40.7968C639.016 40.7968 636.909 41.9769 636.909 44.2528C636.909 46.7816 638.911 47.2874 640.786 47.6035C640.936 47.6299 641.084 47.6547 641.23 47.6791C642.478 47.8878 643.526 48.0631 643.526 48.9311C643.526 49.6265 642.872 50.0058 641.84 50.0058C640.702 50.0058 639.985 49.479 639.859 48.4043H636.614C636.719 50.7855 638.7 52.2396 641.861 52.2396ZM654.661 50.5749C653.881 51.6285 652.933 52.2186 651.437 52.2186C648.95 52.2186 647.644 50.5959 647.644 48.1936V41.113H651.058V47.4771C651.058 48.6572 651.584 49.3105 652.68 49.3105C653.86 49.3105 654.577 48.4254 654.577 47.1399V41.113H658.012V51.9025H654.724V50.5749H654.661ZM659.506 51.9024H662.941V45.8544C662.941 44.5689 663.573 43.6628 664.648 43.6628C665.681 43.6628 666.165 44.3371 666.165 45.4962V51.9024H669.6V45.8544C669.6 44.5689 670.211 43.6628 671.307 43.6628C672.34 43.6628 672.824 44.3371 672.824 45.4962V51.9024H676.259V44.885C676.259 42.4616 675.037 40.7968 672.593 40.7968C671.202 40.7968 670.043 41.3869 669.2 42.6934H669.158C668.61 41.5344 667.535 40.7968 666.123 40.7968C664.564 40.7968 663.531 41.5344 662.857 42.6513H662.794V41.1129H659.506V51.9024Z" fill="#A7ADC5"/>
<path fill-rule="evenodd" clip-rule="evenodd" d="M817.152 44C817.152 32.9543 808.198 24 797.152 24C786.106 24 777.152 32.9543 777.152 44C777.152 55.0457 786.106 64 797.152 64C808.198 64 817.152 55.0457 817.152 44ZM790.288 30.7174C791.975 27.6511 794.147 25.8177 796.429 25.4966V32.6819C793.785 32.7344 791.266 33.0742 788.973 33.6504C789.358 32.5895 789.799 31.6068 790.288 30.7174ZM789.021 30.0206C788.346 31.2484 787.761 32.6296 787.283 34.1308C785.781 34.6091 784.4 35.1943 783.173 35.8696C781.652 36.7056 780.34 37.6978 779.332 38.8157C781.097 32.7368 785.889 27.9452 791.968 26.1798C790.85 27.188 789.857 28.5006 789.021 30.0206ZM785.834 43.2771C785.886 40.6334 786.226 38.1143 786.802 35.8211C785.741 36.2058 784.759 36.6472 783.869 37.1364C780.803 38.8228 778.97 40.9954 778.648 43.2771H785.834ZM788.442 35.2902C787.755 37.6834 787.34 40.392 787.28 43.2771H790.402C793.157 42.2012 795.353 40.0062 796.429 37.2508V34.1279C793.544 34.1876 790.835 34.603 788.442 35.2902ZM778.648 44.7229H785.834C785.886 47.3666 786.226 49.8857 786.802 52.1789C785.741 51.7942 784.759 51.3528 783.869 50.8636C780.803 49.1771 778.97 47.0046 778.648 44.7229ZM787.28 44.7229C787.34 47.608 787.755 50.3166 788.442 52.7098C790.835 53.397 793.544 53.8124 796.429 53.8721V50.7492C795.353 47.9938 793.157 45.7988 790.402 44.7229H787.28ZM783.173 52.1304C784.4 52.8057 785.781 53.3909 787.283 53.8692C787.761 55.3704 788.346 56.7516 789.021 57.9793C789.857 59.4994 790.85 60.812 791.968 61.8202C785.889 60.0548 781.097 55.2632 779.332 49.1843C780.34 50.3022 781.652 51.2944 783.173 52.1304ZM790.288 57.2826C791.975 60.3489 794.147 62.1823 796.429 62.5034V55.3181C793.785 55.2656 791.266 54.9258 788.973 54.3496C789.358 55.4105 789.799 56.3932 790.288 57.2826ZM805.282 57.9793C804.446 59.4994 803.454 60.812 802.336 61.8202C808.415 60.0548 813.207 55.2632 814.972 49.1843C813.964 50.3022 812.651 51.2944 811.131 52.1304C809.903 52.8057 808.522 53.3909 807.021 53.8692C806.543 55.3704 805.958 56.7516 805.282 57.9793ZM804.015 57.2826C804.505 56.3932 804.946 55.4105 805.331 54.3496C803.038 54.9258 800.518 55.2656 797.875 55.3181V62.5034C800.156 62.1823 802.329 60.3489 804.015 57.2826ZM810.434 50.8636C809.545 51.3528 808.562 51.7942 807.501 52.1789C808.078 49.8857 808.417 47.3666 808.47 44.7229H815.655C815.334 47.0046 813.501 49.1771 810.434 50.8636ZM805.862 52.7098C806.549 50.3166 806.964 47.608 807.024 44.7229H803.903C801.146 45.7991 798.951 47.9951 797.875 50.7515V53.8721C800.76 53.8124 803.468 53.397 805.862 52.7098ZM815.655 43.2771H808.47C808.417 40.6334 808.078 38.1143 807.501 35.8211C808.562 36.2058 809.545 36.6472 810.434 37.1364C813.501 38.8228 815.334 40.9954 815.655 43.2771ZM807.024 43.2771C806.964 40.392 806.549 37.6834 805.862 35.2902C803.468 34.603 800.76 34.1876 797.875 34.1279V37.2485C798.951 40.0049 801.146 42.2009 803.903 43.2771H807.024ZM811.131 35.8696C809.903 35.1943 808.522 34.6091 807.021 34.1308C806.543 32.6296 805.958 31.2484 805.282 30.0206C804.446 28.5006 803.454 27.188 802.336 26.1798C808.415 27.9452 813.207 32.7368 814.972 38.8157C813.964 37.6978 812.651 36.7056 811.131 35.8696ZM804.015 30.7174C802.329 27.6511 800.156 25.8177 797.875 25.4966V32.6819C800.518 32.7344 803.038 33.0742 805.331 33.6504C804.946 32.5895 804.505 31.6068 804.015 30.7174ZM827.541 41.572H824.806V27.1963H827.541V41.572ZM827.501 59.2381H824.766V48.9238H827.501V59.2381ZM827.501 47.3153H824.766V44.8624H827.501V47.3153ZM831.997 62.6159H829.263V48.9238H831.896V50.2105H831.957C832.62 49.3058 833.585 48.6423 834.993 48.6423C837.727 48.6423 839.476 50.874 839.476 54.091C839.476 57.4286 837.667 59.5397 835.013 59.5397C833.565 59.5397 832.62 58.9566 832.037 58.072H831.997V62.6159ZM831.937 54.1714C831.937 56.0413 832.801 57.2677 834.43 57.2677C835.817 57.2677 836.702 56.1217 836.702 54.1714C836.702 52.2211 836.018 50.8539 834.329 50.8539C832.62 50.8539 831.937 52.3217 831.937 54.1714ZM844.931 59.5397C847.504 59.5397 849.274 58.2931 849.274 56.2222C849.274 53.8095 847.364 53.327 845.635 52.9651C845.398 52.9165 845.164 52.8736 844.938 52.8322C843.762 52.6167 842.8 52.4404 842.8 51.6984C842.8 50.9545 843.503 50.5523 844.569 50.5523C845.735 50.5523 846.439 50.9545 846.559 52.0603H849.033C848.831 49.9894 847.324 48.6423 844.609 48.6423C842.257 48.6423 840.407 49.7079 840.407 51.9396C840.407 54.1915 842.217 54.6942 844.066 55.0561C844.243 55.0915 844.419 55.1241 844.59 55.1559C845.782 55.3768 846.781 55.5621 846.781 56.4233C846.781 57.1471 846.097 57.6095 844.891 57.6095C843.664 57.6095 842.82 57.0868 842.639 55.9005H840.105C840.266 58.0921 841.935 59.5397 844.931 59.5397ZM859.655 48.9238V59.2381H857.022V58.0317H856.961C856.258 58.9767 855.453 59.5196 854.006 59.5196C851.714 59.5196 850.427 58.0518 850.427 55.8V48.9238H853.141V55.3375C853.141 56.5439 853.684 57.2074 854.85 57.2074C856.137 57.2074 856.921 56.2423 856.921 54.8751V48.9238H859.655ZM861.424 59.2381H864.159V53.2465C864.159 51.8793 864.903 50.9947 866.008 50.9947C867.014 50.9947 867.597 51.5978 867.597 52.764V59.2381H870.331V53.2465C870.331 51.8793 871.035 50.9947 872.181 50.9947C873.186 50.9947 873.769 51.5978 873.769 52.764V59.2381H876.504V52.3016C876.504 50.0497 875.277 48.6423 873.106 48.6423C871.799 48.6423 870.713 49.3259 870.009 50.4518H869.969C869.467 49.3661 868.421 48.6423 867.114 48.6423C865.687 48.6423 864.681 49.3661 864.118 50.3111H864.058V48.9238H861.424V59.2381ZM834.227 41.8736C837.424 41.8736 839.615 39.5011 839.615 36.4249C839.615 33.3487 837.424 30.9762 834.227 30.9762C831.03 30.9762 828.838 33.3487 828.838 36.4249C828.838 39.5011 831.03 41.8736 834.227 41.8736ZM834.227 39.7826C832.538 39.7826 831.613 38.4355 831.613 36.4249C831.613 34.4143 832.538 33.0471 834.227 33.0471C835.896 33.0471 836.841 34.4143 836.841 36.4249C836.841 38.4355 835.896 39.7826 834.227 39.7826ZM849.15 43.9244C848.285 44.7287 846.958 45.0906 845.43 45.0906C842.615 45.0906 840.886 43.8842 840.605 41.8736H843.319C843.54 42.517 844.123 43.0196 845.39 43.0196C846.938 43.0196 847.682 42.2757 847.682 40.8683V39.7424H847.622C847.019 40.426 846.235 40.9487 844.928 40.9487C842.636 40.9487 840.384 39.1392 840.384 36.0228C840.384 32.9466 842.233 30.9762 844.847 30.9762C846.134 30.9762 847.079 31.4788 847.702 32.3434H847.742V31.2577H850.376V40.7879C850.376 42.2355 849.914 43.2207 849.15 43.9244ZM843.058 35.9826C843.058 37.7318 843.983 38.7572 845.39 38.7572C847.119 38.7572 847.823 37.4905 847.823 35.9625C847.823 34.4545 847.019 33.1677 845.37 33.1677C843.983 33.1677 843.058 34.2535 843.058 35.9826ZM857.023 41.8736C860.22 41.8736 862.411 39.5011 862.411 36.4249C862.411 33.3487 860.22 30.9762 857.023 30.9762C853.826 30.9762 851.634 33.3487 851.634 36.4249C851.634 39.5011 853.826 41.8736 857.023 41.8736ZM857.023 39.7826C855.334 39.7826 854.409 38.4355 854.409 36.4249C854.409 34.4143 855.334 33.0471 857.023 33.0471C858.692 33.0471 859.637 34.4143 859.637 36.4249C859.637 38.4355 858.692 39.7826 857.023 39.7826ZM876.63 37.6313H864.808V35.2789H876.63V37.6313ZM877.497 47.1717C877.497 46.709 877.872 46.3339 878.335 46.3339H880.01C880.473 46.3339 880.848 46.709 880.848 47.1717C880.848 47.6343 880.473 48.0094 880.01 48.0094H878.335C877.872 48.0094 877.497 47.6343 877.497 47.1717Z" fill="#A7ADC5"/>
<path fill-rule="evenodd" clip-rule="evenodd" d="M995.175 41.2316C988.763 41.2316 983.482 36.3868 982.793 30.158H991.703C992.253 31.5368 993.6 32.5111 995.175 32.5111C996.75 32.5111 998.098 31.5368 998.648 30.158H1007.56C1006.87 36.3868 1001.59 41.2316 995.175 41.2316ZM1030.03 53.8534C1031 54.8928 1032.41 55.4125 1034.24 55.4125C1036.07 55.4125 1037.47 54.8928 1038.44 53.8534C1039.41 52.8139 1039.9 51.3452 1039.9 49.4471V36.9741C1039.9 35.076 1039.41 33.6073 1038.44 32.5679C1037.47 31.5284 1036.07 31.0087 1034.24 31.0087C1032.41 31.0087 1031 31.5284 1030.03 32.5679C1029.06 33.6073 1028.58 35.076 1028.58 36.9741V49.4471C1028.58 51.3452 1029.06 52.8139 1030.03 53.8534ZM1036.17 49.6844C1036.17 51.2435 1035.52 52.0231 1034.24 52.0231C1032.95 52.0231 1032.3 51.2435 1032.3 49.6844V36.7368C1032.3 35.1777 1032.95 34.3981 1034.24 34.3981C1035.52 34.3981 1036.17 35.1777 1036.17 36.7368V49.6844ZM1021.06 31.3477H1017.33V55.0737H1027.19V51.6842H1021.06V31.3477ZM1047.7 55.4125C1045.9 55.4125 1044.52 54.9041 1043.57 53.8872C1042.62 52.8479 1042.15 51.3678 1042.15 49.4471V36.9741C1042.15 35.0534 1042.62 33.5847 1043.57 32.5679C1044.52 31.5284 1045.9 31.0087 1047.7 31.0087C1049.51 31.0087 1050.89 31.5284 1051.84 32.5679C1052.79 33.5847 1053.26 35.0534 1053.26 36.9741V39.0077H1049.74V36.7368C1049.74 35.1777 1049.09 34.3981 1047.81 34.3981C1046.52 34.3981 1045.87 35.1777 1045.87 36.7368V49.7183C1045.87 51.2549 1046.52 52.0231 1047.81 52.0231C1049.09 52.0231 1049.74 51.2549 1049.74 49.7183V45.0748H1047.87V41.6854H1053.26V49.4471C1053.26 51.3678 1052.79 52.8479 1051.84 53.8872C1050.89 54.9041 1049.51 55.4125 1047.7 55.4125ZM1056.84 53.8534C1057.82 54.8928 1059.22 55.4125 1061.05 55.4125C1062.88 55.4125 1064.28 54.8928 1065.25 53.8534C1066.22 52.8139 1066.71 51.3452 1066.71 49.4471V36.9741C1066.71 35.076 1066.22 33.6073 1065.25 32.5679C1064.28 31.5284 1062.88 31.0087 1061.05 31.0087C1059.22 31.0087 1057.82 31.5284 1056.84 32.5679C1055.87 33.6073 1055.39 35.076 1055.39 36.9741V49.4471C1055.39 51.3452 1055.87 52.8139 1056.84 53.8534ZM1062.98 49.6844C1062.98 51.2435 1062.33 52.0231 1061.05 52.0231C1059.76 52.0231 1059.11 51.2435 1059.11 49.6844V36.7368C1059.11 35.1777 1059.76 34.3981 1061.05 34.3981C1062.33 34.3981 1062.98 35.1777 1062.98 36.7368V49.6844ZM1069.24 31.3477H1072.96V55.0737H1069.24V31.3477ZM1081.25 31.3477H1075.76V55.0737H1079.48V45.4138H1081.25C1083.1 45.4138 1084.49 44.9167 1085.42 43.9225C1086.34 42.9282 1086.81 41.4708 1086.81 39.5501V37.2114C1086.81 35.2907 1086.34 33.8333 1085.42 32.8391C1084.49 31.8448 1083.1 31.3477 1081.25 31.3477ZM1082.6 41.516C1082.31 41.8549 1081.86 42.0244 1081.25 42.0244H1079.48V34.7371H1081.25C1081.86 34.7371 1082.31 34.9066 1082.6 35.2455C1082.92 35.5845 1083.08 36.1607 1083.08 36.9741V39.7873C1083.08 40.6008 1082.92 41.177 1082.6 41.516ZM1093.81 55.4125C1092 55.4125 1090.63 54.9041 1089.71 53.8872C1088.78 52.8479 1088.32 51.3678 1088.32 49.4471V48.0913H1091.84V49.7183C1091.84 51.2549 1092.49 52.0231 1093.78 52.0231C1094.41 52.0231 1094.88 51.8423 1095.2 51.4808C1095.54 51.0967 1095.71 50.4866 1095.71 49.6505C1095.71 48.6563 1095.48 47.7863 1095.03 47.0407C1094.58 46.2724 1093.74 45.3572 1092.52 44.2952C1090.98 42.9394 1089.91 41.7193 1089.3 40.6347C1088.69 39.5274 1088.39 38.2847 1088.39 36.9063C1088.39 35.0308 1088.86 33.5847 1089.81 32.5679C1090.76 31.5284 1092.14 31.0087 1093.95 31.0087C1095.73 31.0087 1097.07 31.5284 1097.98 32.5679C1098.91 33.5847 1099.37 35.0534 1099.37 36.9741V37.957H1095.84V36.7368C1095.84 35.9234 1095.69 35.3359 1095.37 34.9743C1095.05 34.5902 1094.59 34.3981 1093.98 34.3981C1092.74 34.3981 1092.12 35.1551 1092.12 36.6691C1092.12 37.5277 1092.34 38.3299 1092.79 39.0755C1093.27 39.8212 1094.11 40.725 1095.34 41.787C1096.89 43.1428 1097.97 44.3743 1098.56 45.4816C1099.14 46.5888 1099.44 47.888 1099.44 49.3793C1099.44 51.3226 1098.95 52.8139 1097.98 53.8534C1097.03 54.8928 1095.64 55.4125 1093.81 55.4125ZM1102.86 53.8873C1103.81 54.9042 1105.19 55.4125 1107 55.4125C1108.8 55.4125 1110.18 54.9042 1111.13 53.8873C1112.08 52.8479 1112.56 51.3679 1112.56 49.4472V31.3477H1108.96V49.7184C1108.96 50.5318 1108.79 51.1193 1108.45 51.4809C1108.14 51.8424 1107.67 52.0232 1107.06 52.0232C1106.45 52.0232 1105.98 51.8424 1105.64 51.4809C1105.32 51.1193 1105.17 50.5318 1105.17 49.7184V31.3477H1101.44V49.4472C1101.44 51.3679 1101.91 52.8479 1102.86 53.8873ZM1115.21 31.3477H1120.53L1122.9 48.3286H1122.97L1125.35 31.3477H1130.67V55.0737H1127.14V37.1097H1127.07L1124.36 55.0737H1121.24L1118.53 37.1097H1118.47V55.0737H1115.21V31.3477ZM989.638 46.7684C989.638 51.3552 985.92 55.0736 981.333 55.0736V49.26C982.709 49.26 983.825 48.1444 983.825 46.7684C983.825 45.3923 982.709 44.2768 981.333 44.2768V38.4632C985.92 38.4632 989.638 42.1816 989.638 46.7684ZM1009.02 41.2316C1007.6 40.7821 1006.09 40.5395 1004.52 40.5395C996.3 40.5395 989.638 47.2016 989.638 55.4196C989.638 56.2445 989.706 57.0537 989.835 57.842H999.08C998.75 57.102 998.567 56.2823 998.567 55.4196C998.567 52.1324 1001.23 49.4676 1004.52 49.4676C1006.32 49.4676 1007.93 50.2636 1009.02 51.5222V41.2316Z" fill="#A7ADC5"/>
<path fill-rule="evenodd" clip-rule="evenodd" d="M108.198 122.337C109.118 123.43 109.876 124.65 110.448 125.959C111.282 127.868 111.711 129.929 111.708 132.012C111.705 136.05 110.101 139.922 107.248 142.78C104.395 145.637 100.525 147.247 96.4869 147.256C94.5306 147.255 92.5933 146.872 90.7831 146.131C89.492 145.618 88.28 144.925 87.1831 144.072C85.4737 142.769 84.0595 141.119 83.0337 139.23C82.0079 137.342 81.3937 135.257 81.2315 133.114C81.0693 130.971 81.3629 128.818 82.0929 126.796C82.8228 124.775 83.9726 122.93 85.4666 121.385C86.9606 119.84 88.7648 118.629 90.7606 117.831C92.7565 117.034 94.8986 116.668 97.046 116.758C99.1934 116.848 101.297 117.391 103.22 118.353C105.142 119.314 106.839 120.672 108.198 122.337ZM101.561 120.976C99.968 120.234 98.2324 119.85 96.4756 119.851L96.4869 119.828C94.4374 119.827 92.4207 120.344 90.6246 121.331C88.8285 122.318 87.3114 123.744 86.2145 125.475C85.1175 127.207 84.4764 129.187 84.3507 131.233C84.225 133.279 84.6189 135.323 85.4956 137.176C86.0038 136.642 86.3169 135.952 86.3844 135.218C86.5836 133.842 87.2226 132.567 88.206 131.584C89.1893 130.6 90.4643 129.961 91.8406 129.762C92.6143 129.692 93.34 129.357 93.8954 128.814C94.4509 128.271 94.802 127.553 94.8894 126.781C95.0886 125.404 95.7276 124.129 96.711 123.146C97.6943 122.163 98.9693 121.524 100.346 121.324C100.764 121.261 101.172 121.143 101.561 120.976ZM87.3069 139.766C87.2619 139.806 87.2169 139.846 87.1719 139.887C88.0439 140.908 89.0776 141.778 90.2319 142.463C90.5337 142 90.7226 141.472 90.7831 140.922C90.9893 139.543 91.635 138.267 92.624 137.284C93.6131 136.301 94.8928 135.663 96.2731 135.466C97.0479 135.389 97.7724 135.047 98.324 134.498C98.8755 133.948 99.2201 133.225 99.2994 132.451C99.4951 131.073 100.133 129.796 101.117 128.812C102.101 127.828 103.378 127.19 104.756 126.994C105.532 126.921 106.255 126.569 106.792 126.004C106.846 125.958 106.895 125.905 106.938 125.847C106.242 124.658 105.344 123.599 104.283 122.719C103.352 123.592 102.173 124.154 100.908 124.328C100.132 124.381 99.4007 124.713 98.8494 125.262C98.2681 125.832 97.9193 126.598 97.8706 127.411C97.6714 128.787 97.0324 130.062 96.049 131.045C95.0657 132.029 93.7907 132.668 92.4144 132.867C91.6404 132.93 90.9162 133.274 90.3781 133.834C89.819 134.379 89.472 135.105 89.3994 135.882C89.2202 137.264 88.5777 138.545 87.5769 139.516C87.4869 139.606 87.3969 139.686 87.3069 139.766ZM93.1006 143.757C94.198 144.072 95.3341 144.231 96.4756 144.229V144.173C98.3348 144.166 100.168 143.733 101.833 142.907C103.499 142.082 104.954 140.886 106.085 139.411C107.217 137.936 107.996 136.221 108.362 134.398C108.729 132.576 108.672 130.693 108.198 128.896C107.344 129.5 106.355 129.886 105.318 130.021C104.545 130.1 103.823 130.443 103.274 130.992C102.725 131.541 102.382 132.263 102.303 133.036C102.103 134.414 101.463 135.69 100.477 136.673C99.4915 137.657 98.214 138.295 96.8356 138.492C96.0629 138.571 95.341 138.914 94.7917 139.463C94.2425 140.012 93.8995 140.734 93.8206 141.507C93.7201 142.295 93.476 143.057 93.1006 143.757ZM123.262 125.341H119.887V138.987H123.262V125.341ZM129.866 128.446C126.671 128.446 124.601 130.459 124.601 133.834C124.601 137.266 126.626 139.234 129.866 139.234C133.106 139.234 135.131 137.209 135.131 133.834C135.131 130.459 133.061 128.446 129.866 128.446ZM129.866 130.887C131.013 130.887 131.744 131.978 131.744 133.834V133.846C131.744 135.724 131.024 136.759 129.866 136.759C128.707 136.759 127.998 135.657 127.998 133.834C127.998 132.012 128.718 130.887 129.866 130.887ZM139.642 139.651H136.402V139.662C136.593 141.529 138.449 142.868 141.431 142.868C144.637 142.868 146.808 141.338 146.808 138.874V128.637H143.433V130.516C143.179 129.909 142.746 129.394 142.191 129.04C141.636 128.686 140.986 128.51 140.328 128.536C137.741 128.536 136.188 130.572 136.188 133.801C136.188 137.029 137.819 138.908 140.283 138.908C140.921 138.943 141.554 138.786 142.102 138.457C142.649 138.128 143.086 137.642 143.354 137.063H143.422V138.953C143.422 139.966 142.747 140.663 141.464 140.663C141.092 140.713 140.714 140.642 140.385 140.459C140.057 140.277 139.796 139.993 139.642 139.651ZM141.487 131.146C142.679 131.146 143.433 132.181 143.433 133.823V133.834C143.433 135.499 142.691 136.411 141.487 136.411C140.283 136.411 139.563 135.477 139.563 133.823C139.563 132.169 140.294 131.146 141.487 131.146ZM153.344 128.434C150.149 128.434 148.079 130.448 148.079 133.823V133.834C148.079 137.266 150.093 139.223 153.344 139.223C156.596 139.223 158.621 137.198 158.621 133.823C158.621 130.448 156.539 128.434 153.344 128.434ZM153.344 130.876C154.492 130.876 155.223 131.967 155.223 133.823V133.846C155.223 135.724 154.537 136.771 153.389 136.771C152.242 136.771 151.533 135.679 151.533 133.846C151.533 132.012 152.197 130.876 153.344 130.876ZM160.169 125.22C159.987 125.508 159.894 125.844 159.903 126.184V126.207C159.901 126.433 159.946 126.658 160.035 126.866C160.123 127.074 160.254 127.262 160.419 127.417C160.584 127.573 160.779 127.692 160.992 127.769C161.206 127.845 161.432 127.876 161.658 127.861C161.999 127.854 162.33 127.746 162.609 127.551C162.889 127.356 163.104 127.082 163.228 126.764C163.352 126.447 163.378 126.099 163.304 125.767C163.23 125.434 163.059 125.131 162.813 124.895C162.566 124.66 162.255 124.503 161.919 124.444C161.584 124.386 161.238 124.428 160.926 124.566C160.615 124.704 160.351 124.932 160.169 125.22ZM163.278 128.659H159.903V138.987H163.278V128.659ZM171.468 139.122C174.033 139.122 175.529 137.198 175.529 133.823L175.574 133.846C175.574 130.471 174.033 128.536 171.446 128.491C170.783 128.461 170.127 128.636 169.568 128.993C169.008 129.349 168.572 129.869 168.318 130.482H168.251V128.637H164.876V142.294H168.251V137.209H168.318C168.584 137.812 169.029 138.319 169.592 138.661C170.156 139.003 170.81 139.164 171.468 139.122ZM170.219 131.134C171.401 131.134 172.154 132.181 172.154 133.823V133.846C172.154 135.477 171.401 136.501 170.219 136.501C169.038 136.501 168.262 135.454 168.273 133.823C168.284 132.192 169.038 131.134 170.219 131.134ZM185.902 131.877C185.823 129.751 184.124 128.423 181.323 128.423V128.446C178.533 128.446 176.722 129.762 176.699 131.787C176.699 133.362 177.757 134.431 179.771 134.847L181.717 135.263C182.527 135.432 182.842 135.544 182.842 136.084C182.842 136.624 182.392 136.951 181.402 136.951C180.412 136.951 179.804 136.501 179.703 135.736H176.452C176.598 137.839 178.477 139.212 181.346 139.212C184.214 139.212 186.161 137.839 186.161 135.702C186.161 134.138 185.283 133.306 183.224 132.867L181.064 132.428C180.311 132.271 179.939 132.102 179.939 131.573C179.939 131.044 180.356 130.684 181.289 130.684C182.223 130.684 182.831 131.146 182.831 131.877H185.902ZM194.171 138.964H197.422L197.467 128.637H194.092V134.464C194.125 134.708 194.103 134.955 194.032 135.19C193.961 135.424 193.84 135.641 193.679 135.826C193.517 136.01 193.317 136.157 193.094 136.258C192.87 136.359 192.627 136.411 192.382 136.411C191.336 136.411 190.706 135.758 190.706 134.532V128.637H187.331V135.308C187.288 135.82 187.356 136.335 187.529 136.818C187.702 137.302 187.978 137.742 188.336 138.11C188.694 138.478 189.128 138.765 189.606 138.951C190.085 139.137 190.598 139.219 191.111 139.189C191.78 139.227 192.442 139.034 192.986 138.643C193.531 138.252 193.924 137.687 194.103 137.041H194.171V138.964ZM202.316 128.637H199.053L198.997 138.987H202.372V132.901C202.346 132.689 202.366 132.475 202.429 132.271C202.493 132.068 202.599 131.88 202.741 131.721C202.882 131.561 203.056 131.433 203.251 131.346C203.444 131.259 203.656 131.213 203.868 131.213C204.791 131.213 205.297 131.776 205.297 132.811V138.987H208.503V132.878C208.476 132.669 208.493 132.457 208.555 132.255C208.617 132.054 208.721 131.868 208.861 131.71C209 131.552 209.173 131.426 209.365 131.341C209.557 131.255 209.767 131.211 209.977 131.213C210.922 131.213 211.428 131.731 211.428 132.856V138.987H214.803V131.956C214.837 131.498 214.773 131.038 214.618 130.606C214.461 130.174 214.216 129.78 213.898 129.449C213.579 129.118 213.196 128.857 212.769 128.684C212.344 128.512 211.887 128.43 211.428 128.446C210.725 128.415 210.031 128.62 209.457 129.028C208.882 129.435 208.459 130.022 208.256 130.696H208.188C208.08 130.029 207.725 129.427 207.194 129.01C206.662 128.593 205.993 128.392 205.319 128.446C204.658 128.433 204.01 128.641 203.479 129.036C202.948 129.431 202.562 129.991 202.383 130.628H202.316V128.637Z" fill="#A7ADC5"/>
<path d="M431.383 114.149C431.383 112.966 432.342 112.006 433.525 112.006H434.954C435.523 112.006 436.068 112.232 436.47 112.634C436.872 113.035 437.097 113.58 437.097 114.149C437.097 114.717 436.872 115.262 436.47 115.664C436.068 116.066 435.523 116.292 434.954 116.292H433.525C433.244 116.292 432.965 116.236 432.705 116.129C432.445 116.021 432.209 115.863 432.01 115.664C431.811 115.465 431.654 115.229 431.546 114.969C431.438 114.709 431.383 114.43 431.383 114.149ZM371.392 126.29C371.392 134.178 364.998 140.573 357.109 140.573C349.221 140.573 342.826 134.178 342.826 126.29C342.826 118.4 349.221 112.007 357.109 112.007C364.998 112.007 371.392 118.4 371.392 126.29ZM340.04 126.219C340.83 126.219 341.476 126.859 341.397 127.645C341.127 130.335 340.1 132.893 338.433 135.021C336.767 137.15 334.531 138.763 331.985 139.671C329.439 140.579 326.687 140.746 324.05 140.153C321.412 139.559 318.998 138.23 317.086 136.318C315.175 134.407 313.845 131.992 313.251 129.354C312.658 126.717 312.825 123.965 313.733 121.419C314.642 118.873 316.254 116.637 318.383 114.971C320.512 113.305 323.069 112.277 325.759 112.007C326.544 111.927 327.185 112.575 327.185 113.363V124.79C327.185 125.58 327.825 126.219 328.614 126.219H340.04ZM391.389 143.43C392.526 143.43 393.616 143.881 394.419 144.685C395.223 145.488 395.674 146.578 395.674 147.715C395.674 148.851 395.223 149.941 394.419 150.745C393.616 151.548 392.526 152 391.389 152H384.248C383.112 152 382.022 151.548 381.218 150.745C380.415 149.941 379.963 148.851 379.963 147.715C379.963 146.578 380.415 145.488 381.218 144.685C382.022 143.881 383.112 143.43 384.248 143.43H391.389ZM387.104 140.573C394.993 140.573 401.388 134.178 401.388 126.29C401.392 123.867 400.776 121.483 399.599 119.365L401.959 117.005C402.231 116.733 402.447 116.41 402.594 116.055C402.741 115.699 402.817 115.319 402.816 114.934C402.816 114.55 402.741 114.169 402.593 113.814C402.446 113.458 402.23 113.136 401.958 112.864C401.686 112.592 401.363 112.376 401.008 112.229C400.653 112.082 400.272 112.007 399.888 112.007C399.503 112.007 399.122 112.083 398.767 112.23C398.412 112.377 398.089 112.593 397.817 112.865L395.757 114.925C393.272 113.027 390.23 112.001 387.103 112.006C379.216 112.007 372.822 118.4 372.822 126.29C372.822 134.178 379.216 140.573 387.104 140.573ZM431.383 126.29C431.383 134.178 424.988 140.573 417.099 140.573C409.211 140.573 402.816 134.178 402.816 126.29C402.816 118.4 409.211 112.007 417.099 112.007C424.988 112.007 431.383 118.401 431.383 126.29Z" fill="#A7ADC5"/>
<path fill-rule="evenodd" clip-rule="evenodd" d="M528.759 132.305C528.562 132.855 528.246 133.356 527.833 133.77H527.835C527.36 134.247 526.773 134.595 526.127 134.784C525.481 134.973 524.798 134.996 524.14 134.852C523.483 134.707 522.873 134.399 522.367 133.956C521.861 133.513 521.475 132.95 521.245 132.318C521.015 131.687 520.948 131.007 521.051 130.343C521.153 129.679 521.422 129.052 521.833 128.519C522.243 127.986 522.781 127.566 523.398 127.296C524.014 127.027 524.689 126.917 525.359 126.977L525.34 126.957C526.026 127.015 526.716 126.922 527.363 126.686C528.01 126.45 528.597 126.076 529.084 125.59C529.571 125.104 529.945 124.518 530.182 123.872C530.418 123.227 530.511 122.537 530.453 121.852L530.472 121.872C530.396 121.053 530.574 120.23 530.982 119.515C531.391 118.801 532.011 118.23 532.756 117.88C533.502 117.53 534.338 117.418 535.15 117.56C535.961 117.701 536.71 118.089 537.292 118.671C537.875 119.253 538.264 120 538.406 120.81C538.547 121.621 538.435 122.455 538.085 123.2C537.734 123.944 537.162 124.563 536.447 124.971C535.731 125.379 534.907 125.557 534.087 125.48L534.107 125.5C533.421 125.442 532.73 125.534 532.083 125.77C531.437 126.006 530.849 126.38 530.362 126.866C529.875 127.352 529.5 127.938 529.263 128.584C529.027 129.23 528.934 129.919 528.992 130.605L528.971 130.585C529.028 131.167 528.956 131.754 528.759 132.305ZM535.133 135.953L535.113 135.933C535.696 135.992 536.285 135.921 536.837 135.724C537.389 135.528 537.89 135.211 538.305 134.798C538.719 134.384 539.037 133.884 539.234 133.333C539.431 132.782 539.503 132.194 539.445 131.612L539.465 131.631C539.407 130.946 539.5 130.257 539.736 129.611C539.973 128.966 540.348 128.379 540.834 127.893C541.321 127.407 541.909 127.033 542.555 126.797C543.202 126.561 543.892 126.469 544.578 126.526L544.558 126.507C545.378 126.584 546.203 126.406 546.919 125.998C547.635 125.59 548.207 124.971 548.558 124.226C548.908 123.482 549.021 122.647 548.879 121.836C548.737 121.025 548.348 120.278 547.765 119.696C547.182 119.114 546.434 118.726 545.622 118.584C544.81 118.443 543.974 118.554 543.228 118.905C542.482 119.255 541.862 119.826 541.453 120.541C541.044 121.256 540.866 122.079 540.944 122.898L540.924 122.878C540.982 123.563 540.89 124.252 540.653 124.898C540.417 125.544 540.042 126.13 539.555 126.616C539.068 127.102 538.481 127.476 537.834 127.712C537.188 127.948 536.497 128.041 535.811 127.983L535.831 128.003C535.247 127.945 534.659 128.016 534.106 128.212C533.554 128.409 533.053 128.725 532.638 129.139C532.224 129.552 531.907 130.053 531.709 130.604C531.512 131.155 531.44 131.743 531.499 132.325L531.479 132.305C531.537 132.99 531.444 133.68 531.208 134.325C530.971 134.971 530.596 135.557 530.109 136.043C529.623 136.529 529.035 136.903 528.389 137.139C527.742 137.375 527.052 137.468 526.366 137.41L526.386 137.43C525.565 137.353 524.74 137.531 524.025 137.939C523.309 138.347 522.736 138.965 522.386 139.71C522.035 140.455 521.923 141.29 522.065 142.101C522.206 142.911 522.595 143.659 523.178 144.241C523.761 144.823 524.51 145.211 525.322 145.352C526.134 145.494 526.97 145.382 527.716 145.032C528.462 144.682 529.081 144.11 529.49 143.396C529.899 142.681 530.077 141.858 530 141.038L530.02 141.058C529.963 140.373 530.055 139.684 530.292 139.038C530.528 138.392 530.903 137.806 531.39 137.32C531.876 136.834 532.464 136.46 533.11 136.224C533.757 135.988 534.447 135.895 535.133 135.953ZM543.169 130.227C542.756 130.642 542.44 131.142 542.243 131.693C542.046 132.243 541.973 132.831 542.029 133.413L542.01 133.393C542.068 134.078 541.975 134.767 541.739 135.413C541.502 136.059 541.128 136.645 540.641 137.131C540.154 137.617 539.567 137.991 538.92 138.227C538.273 138.463 537.583 138.556 536.897 138.498L536.917 138.517C536.096 138.441 535.272 138.619 534.556 139.028C533.841 139.437 533.269 140.055 532.919 140.8C532.568 141.545 532.457 142.38 532.599 143.191C532.741 144.001 533.131 144.748 533.714 145.33C534.297 145.911 535.045 146.299 535.857 146.441C536.669 146.582 537.505 146.47 538.251 146.119C538.997 145.769 539.616 145.198 540.025 144.483C540.433 143.768 540.611 142.945 540.534 142.126L540.555 142.145C540.497 141.46 540.589 140.771 540.826 140.125C541.062 139.48 541.437 138.894 541.924 138.407C542.411 137.921 542.998 137.547 543.644 137.311C544.291 137.075 544.981 136.983 545.668 137.041L545.647 137.021C546.317 137.081 546.992 136.971 547.609 136.702C548.225 136.432 548.764 136.012 549.174 135.479C549.585 134.947 549.854 134.319 549.957 133.655C550.06 132.991 549.993 132.312 549.763 131.68C549.533 131.049 549.147 130.485 548.641 130.042C548.134 129.599 547.524 129.291 546.867 129.146C546.21 129.001 545.527 129.025 544.881 129.213C544.235 129.402 543.647 129.751 543.172 130.227H543.169ZM564.917 122.486H568.481V139.83H564.917V122.486ZM571.549 130.386C570.86 131.425 570.495 132.644 570.5 133.891C570.494 134.718 570.653 135.539 570.967 136.304C571.282 137.069 571.746 137.764 572.332 138.348C572.918 138.932 573.615 139.393 574.382 139.704C575.148 140.016 575.969 140.171 576.796 140.162C578.043 140.162 579.261 139.792 580.297 139.099C581.333 138.406 582.14 137.421 582.616 136.269C583.092 135.117 583.215 133.85 582.97 132.628C582.725 131.406 582.123 130.284 581.24 129.404C580.356 128.525 579.232 127.927 578.009 127.687C576.786 127.447 575.519 127.575 574.369 128.056C573.219 128.536 572.238 129.347 571.549 130.386ZM579.032 132.393C579.341 132.833 579.514 133.354 579.529 133.891C579.549 134.258 579.492 134.626 579.363 134.971C579.234 135.316 579.035 135.63 578.778 135.894C578.521 136.158 578.213 136.366 577.872 136.505C577.53 136.643 577.164 136.71 576.796 136.7C576.259 136.7 575.733 136.542 575.285 136.245C574.838 135.948 574.487 135.525 574.278 135.03C574.069 134.535 574.01 133.989 574.11 133.461C574.209 132.933 574.462 132.446 574.837 132.06C575.211 131.675 575.691 131.409 576.217 131.295C576.742 131.181 577.289 131.224 577.79 131.42C578.29 131.615 578.722 131.954 579.032 132.393ZM597.297 127.951V139.231C597.297 143.222 594.184 144.909 591.025 144.909C589.912 144.993 588.798 144.768 587.805 144.26C586.812 143.752 585.978 142.98 585.394 142.029L588.435 140.271C588.68 140.767 589.071 141.176 589.555 141.443C590.039 141.711 590.593 141.824 591.143 141.768C591.495 141.816 591.853 141.785 592.191 141.677C592.529 141.569 592.838 141.386 593.096 141.142C593.354 140.898 593.554 140.599 593.68 140.267C593.807 139.936 593.857 139.58 593.828 139.226V138.14C593.41 138.651 592.879 139.056 592.277 139.325C591.674 139.593 591.017 139.716 590.359 139.684C588.791 139.635 587.305 138.978 586.213 137.851C585.122 136.725 584.512 135.218 584.512 133.65C584.512 132.082 585.122 130.575 586.213 129.449C587.305 128.323 588.791 127.665 590.359 127.616C591.017 127.584 591.674 127.708 592.277 127.976C592.879 128.244 593.41 128.65 593.828 129.16V127.948L597.297 127.951ZM593.829 133.652C593.853 133.078 593.704 132.509 593.403 132.02C593.101 131.531 592.66 131.143 592.135 130.907C591.611 130.67 591.029 130.596 590.462 130.694C589.896 130.792 589.371 131.057 588.957 131.455C588.542 131.853 588.256 132.366 588.136 132.928C588.015 133.49 588.065 134.076 588.281 134.609C588.495 135.142 588.865 135.599 589.342 135.92C589.818 136.241 590.38 136.413 590.955 136.412C591.33 136.438 591.705 136.386 592.058 136.258C592.411 136.13 592.733 135.929 593.004 135.669C593.275 135.409 593.488 135.096 593.63 134.748C593.772 134.401 593.84 134.027 593.829 133.652ZM600.364 130.386C599.675 131.425 599.311 132.644 599.315 133.891C599.309 134.718 599.468 135.539 599.783 136.304C600.097 137.069 600.561 137.764 601.148 138.348C601.734 138.932 602.431 139.393 603.197 139.704C603.964 140.016 604.785 140.171 605.612 140.162C606.858 140.162 608.077 139.792 609.113 139.099C610.149 138.406 610.956 137.421 611.431 136.269C611.907 135.117 612.03 133.85 611.785 132.628C611.54 131.406 610.938 130.284 610.055 129.404C609.172 128.525 608.048 127.927 606.825 127.687C605.602 127.447 604.335 127.575 603.185 128.056C602.035 128.536 601.053 129.347 600.364 130.386ZM607.847 132.393C608.156 132.833 608.329 133.354 608.344 133.891C608.364 134.258 608.308 134.626 608.179 134.971C608.05 135.316 607.85 135.63 607.594 135.894C607.337 136.158 607.028 136.366 606.687 136.505C606.346 136.643 605.98 136.71 605.612 136.7C605.074 136.7 604.549 136.542 604.101 136.245C603.653 135.948 603.303 135.525 603.094 135.03C602.884 134.535 602.826 133.989 602.925 133.461C603.025 132.933 603.278 132.446 603.652 132.06C604.027 131.675 604.507 131.409 605.032 131.295C605.557 131.181 606.104 131.224 606.605 131.42C607.106 131.615 607.538 131.954 607.847 132.393ZM613.57 124.767C613.57 124.344 613.696 123.931 613.931 123.579C614.166 123.228 614.5 122.953 614.89 122.792C615.281 122.63 615.711 122.587 616.126 122.67C616.541 122.752 616.922 122.956 617.221 123.255C617.52 123.554 617.723 123.935 617.806 124.35C617.888 124.765 617.846 125.195 617.684 125.586C617.522 125.976 617.248 126.31 616.897 126.545C616.545 126.78 616.132 126.906 615.709 126.906C615.143 126.9 614.603 126.673 614.203 126.273C613.803 125.873 613.576 125.333 613.57 124.767ZM613.93 127.951H617.495V139.831H613.925L613.93 127.951ZM632.548 136.202C632.811 135.462 632.925 134.676 632.884 133.891C632.926 133.106 632.812 132.32 632.548 131.579C632.285 130.838 631.878 130.156 631.35 129.573C630.822 128.99 630.184 128.518 629.473 128.182C628.762 127.847 627.991 127.655 627.206 127.618C626.545 127.582 625.885 127.694 625.273 127.944C624.661 128.195 624.113 128.578 623.667 129.067V127.951H620.103V144.582H623.667V138.712C624.112 139.201 624.661 139.585 625.273 139.836C625.885 140.087 626.545 140.198 627.206 140.162C627.991 140.125 628.762 139.934 629.473 139.598C630.184 139.263 630.821 138.79 631.349 138.207C631.877 137.624 632.284 136.943 632.548 136.202ZM628.81 132.34C629.129 132.795 629.306 133.335 629.32 133.891C629.347 134.272 629.293 134.655 629.161 135.014C629.029 135.372 628.823 135.699 628.556 135.973C628.29 136.247 627.968 136.461 627.613 136.601C627.257 136.742 626.876 136.806 626.494 136.789C625.938 136.789 625.394 136.625 624.931 136.317C624.467 136.01 624.105 135.573 623.889 135.06C623.673 134.548 623.613 133.983 623.716 133.436C623.819 132.89 624.082 132.386 624.47 131.988C624.858 131.59 625.355 131.315 625.899 131.198C626.443 131.081 627.009 131.127 627.527 131.33C628.044 131.533 628.491 131.884 628.81 132.34ZM643.882 136.266C643.882 138.998 641.507 140.162 638.942 140.162C637.905 140.256 636.864 140.037 635.954 139.533C635.043 139.029 634.304 138.263 633.833 137.335L636.921 135.577C637.046 136.006 637.314 136.379 637.681 136.634C638.048 136.889 638.492 137.011 638.937 136.978C639.791 136.978 640.22 136.717 640.22 136.243C640.22 135.771 639.46 135.559 638.487 135.288C636.764 134.808 634.375 134.142 634.375 131.515C634.375 128.924 636.561 127.618 639.032 127.618C639.961 127.589 640.88 127.809 641.695 128.256C642.509 128.703 643.19 129.361 643.664 130.16L640.623 131.799C640.49 131.488 640.268 131.223 639.985 131.037C639.701 130.851 639.37 130.753 639.032 130.754C638.414 130.754 638.033 130.994 638.033 131.419C638.035 131.902 638.781 132.098 639.739 132.35C641.465 132.804 643.882 133.439 643.882 136.266ZM656.901 139.831V127.951L653.341 127.954V134.434C653.341 136.122 652.438 136.881 651.132 136.881C650.847 136.898 650.563 136.854 650.299 136.75C650.033 136.646 649.795 136.486 649.598 136.28C649.401 136.075 649.251 135.829 649.16 135.559C649.067 135.29 649.035 135.004 649.065 134.721V127.951H645.501V135.243C645.501 138.453 647.541 140.163 649.941 140.163C650.582 140.207 651.223 140.099 651.813 139.847C652.404 139.595 652.925 139.207 653.337 138.714V139.831H656.901ZM677.337 132.536V139.83H673.773V132.844C673.773 131.656 673.203 130.897 672.063 130.897C670.875 130.897 670.209 131.728 670.209 133.13V139.83H666.646V132.844C666.646 131.656 666.076 130.897 664.935 130.897C663.747 130.897 663.082 131.728 663.082 133.13V139.83H659.518V127.95H663.082V129.042C663.452 128.557 663.937 128.173 664.492 127.924C665.049 127.675 665.659 127.57 666.266 127.617C666.875 127.587 667.483 127.716 668.029 127.991C668.573 128.265 669.038 128.677 669.377 129.184C669.772 128.653 670.295 128.231 670.898 127.957C671.5 127.683 672.163 127.566 672.823 127.617C675.55 127.618 677.337 129.566 677.337 132.536ZM682.996 125.233C682.996 126.693 681.812 127.878 680.351 127.878C678.891 127.878 677.707 126.693 677.707 125.233C677.707 123.772 678.891 122.588 680.351 122.588C681.812 122.588 682.996 123.772 682.996 125.233Z" fill="#A7ADC5"/>
<path fill-rule="evenodd" clip-rule="evenodd" d="M768.32 116C759.207 116 751.82 123.163 751.82 132C760.932 132 768.32 124.837 768.32 116ZM768.32 148C759.207 148 751.82 140.837 751.82 132C760.932 132 768.32 139.163 768.32 148ZM784.82 132C775.707 132 768.32 124.837 768.32 116C777.432 116 784.82 123.163 784.82 132ZM784.82 132C775.707 132 768.32 139.163 768.32 148C777.432 148 784.82 140.837 784.82 132ZM846.07 126.011H849.185V123.262H846.07V126.011ZM846.07 140.1H849.185V127.729H846.07V140.1ZM806.37 140.1H796.152V123.605H799.268V137.191H806.37V140.1ZM815.774 139.619C814.835 140.169 813.747 140.444 812.51 140.444C811.265 140.444 810.173 140.165 809.234 139.607C808.294 139.05 807.561 138.282 807.034 137.305C806.515 136.32 806.255 135.19 806.255 133.915C806.255 132.624 806.523 131.49 807.057 130.513C807.592 129.527 808.329 128.76 809.268 128.21C810.207 127.66 811.288 127.385 812.51 127.385C813.754 127.385 814.846 127.664 815.786 128.222C816.733 128.779 817.469 129.55 817.996 130.535C818.523 131.513 818.787 132.639 818.787 133.915C818.787 135.197 818.52 136.331 817.985 137.317C817.458 138.294 816.721 139.061 815.774 139.619ZM810.299 136.561C810.803 137.21 811.54 137.534 812.51 137.534C813.51 137.534 814.255 137.198 814.743 136.526C815.24 135.846 815.488 134.976 815.488 133.915C815.488 132.815 815.236 131.937 814.732 131.28C814.236 130.623 813.495 130.295 812.51 130.295C811.494 130.295 810.746 130.631 810.265 131.303C809.791 131.967 809.554 132.838 809.554 133.915C809.554 135.022 809.803 135.904 810.299 136.561ZM824.948 140.444C825.529 140.444 826.063 140.375 826.552 140.237C827.048 140.1 827.499 139.905 827.904 139.653V140.902C827.919 141.36 827.8 141.742 827.548 142.047C827.304 142.36 826.976 142.593 826.563 142.746C826.151 142.906 825.712 142.987 825.246 142.987C824.811 142.987 824.406 142.891 824.032 142.7C823.665 142.509 823.383 142.231 823.184 141.864L820.298 143.261C820.771 144.063 821.447 144.708 822.325 145.197C823.203 145.694 824.169 145.942 825.223 145.942C826.132 145.942 826.976 145.82 827.755 145.575C828.534 145.338 829.19 144.976 829.725 144.487C830.267 143.998 830.637 143.376 830.836 142.62C830.905 142.353 830.95 142.082 830.973 141.807C831.004 141.539 831.019 141.253 831.019 140.948V127.729H828.293V128.416C827.873 128.088 827.396 127.836 826.861 127.66C826.334 127.477 825.75 127.385 825.109 127.385C823.925 127.385 822.894 127.668 822.016 128.233C821.138 128.798 820.454 129.573 819.966 130.558C819.484 131.536 819.244 132.655 819.244 133.915C819.244 135.152 819.481 136.263 819.954 137.248C820.435 138.233 821.103 139.012 821.959 139.585C822.814 140.157 823.81 140.444 824.948 140.444ZM825.452 137.672C824.78 137.672 824.23 137.504 823.803 137.168C823.375 136.832 823.058 136.381 822.852 135.816C822.646 135.243 822.543 134.609 822.543 133.915C822.543 133.227 822.65 132.601 822.864 132.036C823.077 131.463 823.406 131.009 823.849 130.673C824.299 130.329 824.872 130.157 825.567 130.157C826.544 130.157 827.243 130.505 827.663 131.2C828.083 131.887 828.293 132.792 828.293 133.915C828.293 135.037 828.079 135.946 827.652 136.641C827.232 137.328 826.498 137.672 825.452 137.672ZM841.684 139.619C840.745 140.169 839.656 140.444 838.419 140.444C837.175 140.444 836.083 140.165 835.143 139.607C834.204 139.05 833.471 138.282 832.944 137.305C832.425 136.32 832.165 135.19 832.165 133.915C832.165 132.624 832.432 131.49 832.967 130.513C833.502 129.527 834.238 128.76 835.178 128.21C836.117 127.66 837.198 127.385 838.419 127.385C839.664 127.385 840.756 127.664 841.695 128.222C842.642 128.779 843.379 129.55 843.906 130.535C844.433 131.513 844.696 132.639 844.696 133.915C844.696 135.197 844.429 136.331 843.894 137.317C843.368 138.294 842.631 139.061 841.684 139.619ZM836.209 136.561C836.713 137.21 837.45 137.534 838.419 137.534C839.42 137.534 840.164 137.198 840.653 136.526C841.149 135.846 841.398 134.976 841.398 133.915C841.398 132.815 841.146 131.937 840.642 131.28C840.145 130.623 839.404 130.295 838.419 130.295C837.404 130.295 836.655 130.631 836.174 131.303C835.701 131.967 835.464 132.838 835.464 133.915C835.464 135.022 835.712 135.904 836.209 136.561ZM854.36 145.598H851.222V127.729H853.972V128.416C854.391 128.088 854.864 127.836 855.392 127.66C855.926 127.477 856.514 127.385 857.156 127.385C858.339 127.385 859.37 127.668 860.248 128.233C861.127 128.798 861.806 129.573 862.288 130.558C862.776 131.536 863.02 132.655 863.02 133.915C863.02 135.152 862.78 136.263 862.298 137.248C861.825 138.233 861.161 139.012 860.306 139.585C859.451 140.157 858.454 140.444 857.316 140.444C856.735 140.444 856.197 140.375 855.7 140.237C855.212 140.1 854.765 139.905 854.36 139.653V145.598ZM854.612 136.641C855.041 137.328 855.773 137.672 856.812 137.672C857.484 137.672 858.034 137.504 858.462 137.168C858.889 136.832 859.206 136.381 859.412 135.816C859.618 135.243 859.722 134.609 859.722 133.915C859.722 133.227 859.615 132.601 859.4 132.036C859.187 131.463 858.855 131.009 858.404 130.673C857.961 130.329 857.392 130.157 856.698 130.157C855.727 130.157 855.029 130.505 854.602 131.2C854.181 131.887 853.972 132.792 853.972 133.915C853.972 135.037 854.185 135.946 854.612 136.641ZM868.665 140.444C870.283 140.444 871.551 140.081 872.467 139.355C873.384 138.63 873.842 137.633 873.842 136.366C873.842 135.404 873.544 134.644 872.949 134.086C872.36 133.529 871.36 133.067 869.947 132.7C868.985 132.456 868.267 132.257 867.794 132.105C867.328 131.952 867.019 131.803 866.866 131.658C866.721 131.513 866.649 131.333 866.649 131.12C866.649 130.761 866.82 130.486 867.164 130.295C867.516 130.104 867.977 130.028 868.55 130.066C869.764 130.157 870.429 130.677 870.543 131.624L873.727 131.051C873.567 129.928 873.017 129.039 872.078 128.382C871.139 127.718 869.94 127.385 868.481 127.385C866.985 127.385 865.789 127.737 864.896 128.439C864.003 129.142 863.556 130.089 863.556 131.28C863.556 132.227 863.865 132.975 864.484 133.525C865.102 134.067 866.167 134.533 867.679 134.923C868.573 135.159 869.229 135.35 869.65 135.495C870.077 135.64 870.352 135.789 870.474 135.942C870.596 136.087 870.658 136.282 870.658 136.526C870.658 136.916 870.505 137.221 870.199 137.443C869.894 137.656 869.459 137.763 868.894 137.763C868.206 137.763 867.637 137.599 867.187 137.271C866.744 136.942 866.457 136.488 866.328 135.908L863.143 136.389C863.35 137.679 863.93 138.68 864.885 139.39C865.847 140.092 867.107 140.444 868.665 140.444ZM881.926 140.02C881.261 140.318 880.483 140.467 879.589 140.467C878.62 140.467 877.829 140.302 877.219 139.974C876.607 139.646 876.13 139.229 875.787 138.725C875.45 138.221 875.21 137.698 875.065 137.156C874.92 136.606 874.832 136.106 874.801 135.656C874.771 135.205 874.755 134.877 874.755 134.671V127.729H877.917V133.571C877.917 133.853 877.932 134.216 877.963 134.659C877.993 135.094 878.089 135.533 878.249 135.976C878.409 136.419 878.669 136.79 879.028 137.087C879.395 137.385 879.91 137.534 880.575 137.534C880.842 137.534 881.128 137.492 881.433 137.408C881.739 137.324 882.025 137.164 882.293 136.927C882.56 136.683 882.778 136.328 882.945 135.862C883.121 135.388 883.209 134.77 883.209 134.006V127.729H886.347V140.1H883.599V138.829C883.148 139.325 882.591 139.722 881.926 140.02ZM888.152 140.1H891.29V132.609C891.29 131.899 891.484 131.322 891.874 130.879C892.271 130.429 892.794 130.203 893.444 130.203C894.123 130.203 894.654 130.432 895.036 130.891C895.425 131.341 895.62 131.975 895.62 132.792V140.1H898.736V132.609C898.736 131.899 898.93 131.322 899.32 130.879C899.717 130.429 900.24 130.203 900.889 130.203C901.569 130.203 902.099 130.432 902.481 130.891C902.87 131.341 903.066 131.975 903.066 132.792V140.1H906.181V131.967C906.181 130.616 905.818 129.524 905.092 128.691C904.375 127.851 903.31 127.431 901.897 127.431C901.103 127.431 900.374 127.603 899.709 127.947C899.044 128.29 898.514 128.76 898.117 129.356C897.796 128.775 897.338 128.309 896.742 127.958C896.146 127.607 895.406 127.431 894.52 127.431C893.771 127.431 893.085 127.58 892.458 127.878C891.832 128.168 891.313 128.569 890.9 129.081V127.729H888.152V140.1Z" fill="#A7ADC5"/>
<g clip-path="url(#clip0_431_7434)">
<path fill-rule="evenodd" clip-rule="evenodd" d="M1066.37 108.052C1066.26 107.949 1066.04 108.005 1065.82 108.163C1064.58 109.078 1066.99 111.674 1068.39 113.188L1068.39 113.188C1068.75 113.575 1069.05 113.891 1069.2 114.091C1069.23 114.138 1069.29 114.121 1069.37 114.066C1069.44 114.017 1069.49 113.953 1069.5 113.892C1069.51 113.821 1069.51 113.753 1069.49 113.706C1068.94 111.674 1068.05 109.454 1066.37 108.052ZM1074.67 109.287C1074.85 109.388 1074.95 109.485 1075 109.592C1075.07 109.734 1075.03 109.831 1074.91 109.881C1073.99 110.318 1072.83 111.947 1072.11 112.946L1072.11 112.946L1072.11 112.946C1071.96 113.159 1071.83 113.343 1071.72 113.481C1071.58 113.663 1071.24 113.557 1071.19 113.259C1071.2 112.923 1072.51 110.446 1073.25 109.771C1073.27 109.752 1073.29 109.731 1073.31 109.709C1073.6 109.436 1074.06 109.012 1074.67 109.287ZM1089.29 114.068C1089.3 114.026 1089.3 113.956 1089.3 113.9C1089.2 113.893 1089.1 113.881 1089.01 113.87C1088.92 113.86 1088.84 113.851 1088.76 113.844C1088.69 113.844 1088.61 113.83 1088.56 113.788C1088.46 113.746 1088.41 113.69 1088.4 113.592C1088.4 113.494 1088.46 113.424 1088.56 113.382C1088.6 113.351 1088.66 113.343 1088.71 113.336C1088.73 113.333 1088.75 113.33 1088.77 113.327L1088.77 113.326C1088.9 113.313 1089.03 113.299 1089.16 113.299C1089.52 113.299 1089.87 113.299 1090.23 113.285C1090.33 113.285 1090.45 113.299 1090.53 113.341C1090.76 113.452 1090.76 113.69 1090.55 113.802C1090.48 113.844 1090.39 113.858 1090.29 113.872C1090.17 113.872 1090.04 113.884 1089.9 113.896L1089.86 113.9V114.012C1089.87 114.558 1089.9 115.117 1090.05 115.649C1090.07 115.775 1090.07 115.901 1090.02 116.027C1089.9 116.279 1089.62 116.321 1089.43 116.111C1089.32 115.999 1089.29 115.859 1089.26 115.72L1089.26 115.719C1089.22 115.159 1089.22 114.614 1089.29 114.068ZM1093.25 114.572C1093.25 114.572 1093.24 114.558 1093.24 114.544C1093.22 114.558 1093.21 114.572 1093.2 114.586C1093.19 114.6 1093.18 114.614 1093.17 114.628C1093.1 114.726 1093.03 114.824 1092.96 114.922C1092.89 115.02 1092.82 115.118 1092.75 115.215L1092.68 115.285C1092.55 115.411 1092.42 115.425 1092.26 115.313C1092.11 115.173 1091.98 115.006 1091.85 114.838C1091.82 114.796 1091.79 114.754 1091.76 114.698C1091.73 114.805 1091.72 114.892 1091.7 114.982C1091.69 115.021 1091.69 115.061 1091.68 115.104L1091.68 115.11C1091.63 115.346 1091.59 115.581 1091.53 115.831C1091.52 115.901 1091.51 115.971 1091.46 116.055C1091.42 116.167 1091.32 116.209 1091.18 116.195C1091.06 116.181 1090.98 116.111 1090.95 115.999C1090.92 115.943 1090.9 115.873 1090.92 115.817C1090.92 115.565 1090.93 115.313 1090.96 115.062C1090.99 114.837 1091.02 114.612 1091.06 114.387C1091.09 114.164 1091.12 113.941 1091.15 113.718C1091.15 113.701 1091.16 113.685 1091.16 113.67C1091.16 113.635 1091.17 113.603 1091.19 113.564C1091.26 113.438 1091.38 113.355 1091.52 113.341C1091.68 113.341 1091.78 113.41 1091.86 113.536C1091.88 113.564 1091.89 113.592 1091.92 113.62C1092.03 113.821 1092.14 114.028 1092.25 114.236C1092.32 114.375 1092.39 114.515 1092.46 114.656C1092.46 114.656 1092.48 114.67 1092.49 114.698C1092.52 114.656 1092.54 114.614 1092.55 114.558C1092.63 114.409 1092.7 114.254 1092.77 114.096L1092.77 114.096L1092.77 114.096C1092.79 114.031 1092.82 113.965 1092.85 113.9C1092.91 113.774 1092.98 113.662 1093.07 113.55C1093.14 113.424 1093.27 113.341 1093.44 113.369C1093.61 113.382 1093.71 113.48 1093.75 113.62C1093.82 113.844 1093.9 114.082 1093.95 114.334C1094 114.542 1094.03 114.753 1094.06 114.966L1094.06 114.966L1094.06 114.966L1094.06 114.967C1094.09 115.17 1094.13 115.375 1094.17 115.579C1094.2 115.719 1094.18 115.845 1094.12 115.971C1094 116.223 1093.71 116.251 1093.52 116.013C1093.44 115.915 1093.42 115.803 1093.41 115.677C1093.37 115.36 1093.32 115.043 1093.27 114.717L1093.25 114.572ZM1060.19 114.792C1060.15 114.633 1060.16 114.441 1060.26 114.175C1060.67 113.342 1061.54 113.4 1062.11 113.437C1062.15 113.44 1062.2 113.443 1062.24 113.445C1063.64 113.527 1067.33 115.037 1067.65 115.39C1067.87 115.754 1067.61 116.16 1067.28 116.093C1067.04 116.036 1066.73 115.954 1066.37 115.86L1066.37 115.86L1066.37 115.859L1066.37 115.859L1066.37 115.859C1064.69 115.414 1061.94 114.689 1060.55 115.024C1060.37 115.079 1060.24 115.008 1060.19 114.792ZM1030.32 132.467C1030.72 132.174 1031.16 131.931 1031.62 131.742C1032.11 131.606 1032.62 131.629 1033.09 131.806C1033.56 131.982 1033.96 132.304 1034.22 132.721C1034.46 133.137 1034.55 133.618 1034.49 134.09C1034.42 134.563 1034.2 135.002 1033.86 135.341C1033.59 135.616 1033.29 135.855 1032.96 136.053C1032.17 136.551 1031.38 137.034 1030.59 137.518L1030.59 137.518L1030.59 137.518C1029.9 137.937 1029.21 138.357 1028.53 138.788C1028.22 139.02 1027.9 139.229 1027.56 139.411C1027.05 139.661 1026.46 139.728 1025.91 139.6C1025.35 139.473 1024.85 139.158 1024.51 138.711C1024.25 138.395 1024.03 138.049 1023.86 137.681C1023.43 136.813 1023.01 135.945 1022.58 135.077L1022.58 135.077C1021.58 133.059 1020.59 131.036 1019.64 128.982C1019.03 127.742 1018.54 126.322 1018.05 124.944L1018.02 124.835C1017.8 124.425 1017.76 123.95 1017.9 123.51C1018.04 123.07 1018.35 122.701 1018.76 122.48C1019.17 122.26 1019.66 122.206 1020.11 122.33C1020.57 122.454 1020.95 122.746 1021.19 123.144C1021.92 124.089 1022.56 125.093 1023.11 126.145C1023.88 127.535 1024.63 128.924 1025.37 130.3L1025.37 130.301L1025.37 130.301C1025.99 131.445 1026.6 132.58 1027.21 133.7C1027.29 133.837 1027.38 133.968 1027.47 134.094C1028.49 133.676 1029.45 133.129 1030.32 132.467ZM1033.54 129.595C1036.25 134.326 1041.63 135.255 1044.85 131.579C1047.53 128.603 1047.85 123.414 1045.56 119.344C1044.93 118.1 1043.92 117.083 1042.67 116.436C1041.41 115.79 1039.98 115.548 1038.58 115.744C1037.43 115.963 1036.36 116.462 1035.47 117.194C1031.28 120.692 1031.62 126.237 1033.54 129.595ZM1041.61 120.59C1042.52 121.153 1043.2 122.007 1043.55 123.007L1043.51 123.019C1043.91 124.201 1043.94 125.478 1043.57 126.673C1043.2 127.867 1042.46 128.92 1041.45 129.684C1041.11 129.913 1040.71 130.066 1040.3 130.132C1039.89 130.197 1039.47 130.174 1039.07 130.064C1038.67 129.954 1038.3 129.759 1037.98 129.493C1037.66 129.228 1037.41 128.898 1037.24 128.527C1035.88 126.25 1036.27 122.422 1038.13 120.806C1038.6 120.386 1039.2 120.134 1039.83 120.095C1040.46 120.056 1041.09 120.23 1041.61 120.59ZM1057.96 124.609C1057.63 124.679 1057.29 124.683 1056.96 124.621C1056.63 124.56 1056.31 124.435 1056.03 124.253C1055.79 124.116 1055.58 123.927 1055.42 123.701C1055.25 123.474 1055.14 123.216 1055.1 122.943C1055.05 122.671 1055.07 122.391 1055.14 122.125C1055.22 121.859 1055.35 121.613 1055.54 121.404C1055.86 120.985 1056.32 120.685 1056.84 120.552C1058.2 120.167 1059.59 119.933 1061 119.853C1061.31 119.817 1061.63 119.843 1061.93 119.928C1062.23 120.013 1062.5 120.156 1062.75 120.348C1062.99 120.54 1063.19 120.777 1063.34 121.046C1063.48 121.315 1063.58 121.609 1063.6 121.913C1064.01 123.404 1064.06 124.968 1063.73 126.479C1062.56 131.363 1058.53 133.042 1054 131.477C1052.73 131.059 1051.62 130.28 1050.8 129.239C1049.72 127.986 1048.95 126.5 1048.55 124.902C1048.24 123.479 1048.27 122.002 1048.66 120.595C1049.04 119.188 1049.76 117.891 1050.77 116.813C1051.72 115.641 1052.95 114.719 1054.36 114.129C1055.24 113.651 1056.28 113.514 1057.27 113.748C1057.49 113.808 1057.7 113.926 1057.86 114.089C1058.02 114.252 1058.13 114.455 1058.19 114.675C1058.24 114.896 1058.23 115.127 1058.17 115.344C1058.1 115.561 1057.97 115.756 1057.8 115.91C1057.48 116.197 1057.12 116.453 1056.75 116.673C1055.59 117.393 1054.59 118.321 1053.78 119.407C1053.26 120.111 1052.89 120.918 1052.72 121.773C1052.55 122.627 1052.57 123.509 1052.78 124.355C1053.08 125.509 1053.73 126.544 1054.65 127.318C1057.52 129.862 1061.24 127.407 1060.59 123.935C1060.1 124.052 1059.65 124.173 1059.2 124.29C1058.78 124.402 1058.37 124.51 1057.96 124.609ZM1065.35 126.441C1066.4 131.783 1071.21 134.326 1075.44 131.783C1078.94 129.76 1080.89 124.914 1080.03 120.374C1079.83 119.004 1079.19 117.73 1078.21 116.733C1077.23 115.736 1075.95 115.065 1074.56 114.816C1073.4 114.676 1072.22 114.825 1071.14 115.248C1066.04 117.283 1064.58 122.625 1065.35 126.441ZM1075.83 120.336C1076.53 121.144 1076.91 122.166 1076.91 123.223C1076.92 124.476 1076.52 125.7 1075.79 126.724C1075.05 127.748 1074 128.52 1072.79 128.934C1072.39 129.045 1071.97 129.07 1071.55 129.006C1071.14 128.942 1070.75 128.791 1070.41 128.563C1070.06 128.335 1069.77 128.036 1069.55 127.687C1069.34 127.338 1069.2 126.948 1069.16 126.543C1068.57 123.961 1070.19 120.45 1072.48 119.484C1073.05 119.224 1073.7 119.167 1074.31 119.322C1074.92 119.478 1075.46 119.836 1075.83 120.336ZM1084.31 132.851C1084.25 133.317 1083.99 133.738 1083.61 134.023C1083.23 134.308 1082.75 134.433 1082.27 134.371C1081.8 134.309 1081.37 134.064 1081.07 133.69C1080.78 133.317 1080.65 132.846 1080.72 132.38C1080.78 131.915 1081.03 131.493 1081.41 131.208C1081.8 130.923 1082.28 130.798 1082.75 130.861C1083.23 130.923 1083.66 131.168 1083.95 131.541C1084.24 131.914 1084.37 132.386 1084.31 132.851ZM1083.18 115.694C1083.42 115.324 1083.79 115.043 1084.21 114.892C1084.64 114.74 1085.1 114.727 1085.53 114.854C1085.97 114.962 1086.36 115.214 1086.63 115.568C1086.9 115.922 1087.04 116.357 1087.03 116.8C1086.97 117.511 1086.86 118.216 1086.7 118.911C1086.61 119.444 1086.51 119.977 1086.41 120.51L1086.41 120.511L1086.41 120.514L1086.41 120.518L1086.41 120.523L1086.41 120.53L1086.41 120.531C1086.08 122.343 1085.75 124.152 1085.4 125.945C1085.19 126.873 1084.92 127.764 1084.62 128.705C1084.52 128.999 1084.34 129.265 1084.11 129.481C1083.97 129.643 1083.79 129.767 1083.58 129.843C1083.38 129.918 1083.16 129.941 1082.94 129.911C1082.73 129.88 1082.52 129.797 1082.35 129.669C1082.17 129.54 1082.03 129.37 1081.94 129.175C1081.79 128.826 1081.7 128.45 1081.69 128.069C1081.69 126.492 1081.69 124.902 1081.8 123.312C1081.98 121.043 1082.32 118.79 1082.84 116.571C1082.9 116.274 1083.01 115.99 1083.18 115.732V115.694ZM1024.7 144.14C1024.63 143.78 1024.67 143.407 1024.83 143.071C1024.98 142.732 1025.24 142.449 1025.57 142.265C1025.92 142.066 1026.33 141.996 1026.73 142.066C1027.12 142.134 1027.47 142.333 1027.73 142.628C1028.12 142.958 1028.45 143.352 1028.71 143.794L1028.72 143.806C1029.59 145.5 1030.42 147.194 1031.24 148.9L1031.25 148.905C1031.74 149.995 1032.18 151.11 1032.56 152.223C1032.8 152.893 1032.85 153.614 1032.7 154.31C1032.67 154.667 1032.54 155.008 1032.32 155.292C1032.09 155.581 1031.78 155.796 1031.42 155.91C1031.07 156.023 1030.69 156.03 1030.33 155.928C1029.98 155.829 1029.66 155.63 1029.42 155.357C1028.87 154.86 1028.45 154.233 1028.2 153.535C1028.13 153.339 1028.07 153.143 1028 152.948L1028 152.946C1027.84 152.464 1027.67 151.985 1027.49 151.51C1026.84 149.834 1026.36 148.677 1025.97 147.771C1025.9 147.602 1025.83 147.442 1025.76 147.288C1025.47 146.619 1025.24 146.077 1025.03 145.529C1024.86 145.081 1024.75 144.614 1024.7 144.14ZM1037.35 138.871C1036.07 138.546 1034.72 138.498 1033.42 138.732C1032.4 138.83 1031.41 139.058 1030.72 139.51C1030.37 139.74 1030.08 140.035 1029.92 140.411C1029.77 140.788 1029.74 141.22 1029.88 141.701C1030.11 142.581 1030.42 143.437 1030.73 144.29L1030.73 144.293L1030.78 144.432L1030.78 144.435C1031.71 146.916 1032.64 149.389 1033.59 151.853C1033.7 152.241 1033.85 152.616 1034.05 152.969L1034.05 152.976C1034.32 153.415 1034.65 153.807 1035.05 154.137C1035.24 154.319 1035.49 154.444 1035.75 154.5C1036.02 154.557 1036.3 154.54 1036.56 154.452C1036.82 154.365 1037.05 154.209 1037.22 154.003C1037.39 153.8 1037.51 153.555 1037.55 153.295C1037.72 152.588 1037.66 151.847 1037.39 151.171C1037.31 150.944 1037.24 150.713 1037.17 150.469L1037.17 150.466L1037.16 150.445C1037.14 150.371 1037.12 150.294 1037.1 150.217C1039.26 149.391 1041.56 148.281 1042.37 145.698C1042.68 144.805 1042.71 143.838 1042.44 142.93C1042.17 142.021 1041.62 141.215 1040.87 140.624C1039.84 139.796 1038.64 139.198 1037.35 138.871ZM1033.79 142.04C1033.83 142.028 1033.87 142.017 1033.92 142.006C1035.32 141.79 1036.76 142.078 1037.97 142.817C1038.5 143.179 1038.72 143.581 1038.76 143.967C1038.79 144.365 1038.65 144.797 1038.35 145.211C1037.79 145.995 1036.76 146.622 1035.83 146.738C1035.16 145.218 1034.47 143.636 1033.79 142.04ZM1050.84 135.763C1049.35 135.277 1047.46 135.396 1045.92 136.088C1044.39 136.783 1043.17 138.082 1043.17 139.968C1043.14 140.741 1043.36 141.504 1043.81 142.142C1044.26 142.777 1044.91 143.254 1045.65 143.503C1045.99 143.655 1046.35 143.768 1046.72 143.884L1046.72 143.884L1046.72 143.884L1046.72 143.885L1046.73 143.89C1046.86 143.931 1046.99 143.972 1047.12 144.016C1047.32 144.082 1047.52 144.142 1047.72 144.2L1047.75 144.209L1047.75 144.209L1047.75 144.209C1047.81 144.228 1047.87 144.246 1047.93 144.265C1048.2 144.345 1048.45 144.427 1048.7 144.529C1049.64 144.939 1050.07 145.429 1050.21 145.867C1050.35 146.301 1050.23 146.749 1049.94 147.125C1049.64 147.504 1049.17 147.79 1048.68 147.882C1048.19 147.972 1047.68 147.875 1047.26 147.5L1047.26 147.496C1047.02 147.292 1046.76 147.121 1046.47 146.987C1046.19 146.834 1045.87 146.765 1045.54 146.789C1045.22 146.813 1044.91 146.931 1044.65 147.126C1044.41 147.298 1044.22 147.535 1044.1 147.808C1043.99 148.083 1043.96 148.383 1044.02 148.674C1044.08 148.996 1044.22 149.299 1044.42 149.558L1044.44 149.576C1045.09 150.262 1045.92 150.769 1046.83 151.047C1047.75 151.324 1048.72 151.363 1049.65 151.161C1052.21 150.732 1053.92 148.916 1054.27 146.921C1054.62 144.903 1053.59 142.757 1050.8 141.721L1050.8 141.72C1050.2 141.502 1049.57 141.344 1048.97 141.192L1048.97 141.191L1048.95 141.187C1048.74 141.133 1048.53 141.081 1048.33 141.026C1047.57 140.819 1047.2 140.529 1047.04 140.27C1046.9 140.028 1046.92 139.762 1047.09 139.499C1047.45 138.947 1048.44 138.498 1049.48 138.769L1049.49 138.771C1049.63 138.801 1049.76 138.849 1049.88 138.911L1049.9 138.92L1049.91 138.927C1050.15 139.011 1050.41 139.038 1050.66 139.006C1050.92 138.973 1051.16 138.881 1051.36 138.738C1051.57 138.595 1051.74 138.405 1051.86 138.184C1051.98 137.966 1052.04 137.726 1052.04 137.481C1052.07 137.104 1051.97 136.727 1051.76 136.415C1051.54 136.1 1051.21 135.87 1050.84 135.763ZM1065.34 135.887C1065.04 135.745 1064.71 135.678 1064.38 135.691C1064.05 135.705 1063.73 135.798 1063.45 135.963C1063.17 136.127 1062.93 136.357 1062.76 136.632C1062.61 136.864 1062.5 137.123 1062.44 137.395C1062.39 137.666 1062.39 137.946 1062.45 138.217C1062.5 138.565 1062.57 138.904 1062.63 139.238C1062.73 139.791 1062.82 140.332 1062.89 140.883L1062.89 140.897C1063.04 141.761 1063.11 142.635 1063.12 143.511L1063.12 143.524C1063.17 144.47 1062.84 145.397 1062.2 146.11L1062.19 146.122C1061.98 146.383 1061.71 146.581 1061.39 146.696C1061.07 146.811 1060.73 146.838 1060.4 146.773C1060.07 146.708 1059.76 146.554 1059.51 146.328C1059.27 146.103 1059.09 145.814 1059 145.495C1058.81 144.823 1058.7 144.132 1058.67 143.436L1059 138.389C1059 138.323 1059.01 138.256 1059.01 138.188L1059.01 138.181C1059.03 138.03 1059.04 137.876 1059.04 137.733C1059.05 137.518 1059.04 137.298 1058.99 137.089C1058.94 136.876 1058.84 136.673 1058.66 136.501C1058.49 136.33 1058.25 136.204 1057.96 136.118C1057.42 135.966 1056.97 135.971 1056.59 136.128C1056.21 136.284 1055.95 136.575 1055.77 136.912C1055.59 137.245 1055.47 137.64 1055.38 138.035C1055.32 138.328 1055.27 138.636 1055.22 138.929C1055.2 139.03 1055.18 139.13 1055.16 139.226L1055.16 139.229C1054.9 140.836 1054.82 142.469 1054.93 144.094C1054.95 144.972 1055.13 145.839 1055.48 146.65C1055.87 147.697 1056.57 148.604 1057.5 149.252C1058.43 149.9 1059.54 150.258 1060.68 150.277C1061.82 150.296 1062.94 149.975 1063.89 149.357C1064.84 148.741 1065.57 147.857 1066 146.823C1066.59 145.506 1066.87 144.073 1066.82 142.634C1066.78 141.585 1066.72 140.528 1066.66 139.476V139.476L1066.66 139.473C1066.63 138.956 1066.61 138.441 1066.58 137.928C1066.57 137.415 1066.39 136.917 1066.08 136.502C1065.89 136.24 1065.64 136.029 1065.34 135.887ZM1075.82 143.838C1075.83 143.825 1075.84 143.813 1075.85 143.801C1076.13 143.456 1076.41 143.107 1076.69 142.756L1076.74 142.697C1077.22 142.088 1077.71 141.475 1078.21 140.873L1078.21 140.869C1078.66 140.337 1079.15 139.834 1079.67 139.364C1079.96 139.045 1080.35 138.824 1080.77 138.735C1081.21 138.645 1081.65 138.692 1082.06 138.871C1082.44 139.024 1082.77 139.293 1082.99 139.639C1083.21 139.983 1083.31 140.386 1083.28 140.791C1083.29 142.071 1083.23 143.35 1083.1 144.624L1083.1 144.628C1082.97 145.79 1082.81 146.974 1082.66 148.159L1082.66 148.165C1082.52 149.195 1082.39 150.225 1082.27 151.241C1082.19 151.961 1081.9 152.643 1081.43 153.207C1081.23 153.505 1080.95 153.739 1080.61 153.879C1080.27 154.021 1079.89 154.06 1079.53 153.99C1079.17 153.92 1078.83 153.745 1078.57 153.488C1078.31 153.232 1078.14 152.907 1078.07 152.555C1077.91 151.927 1077.91 151.272 1078.07 150.645C1078.31 149.23 1078.54 147.815 1078.77 146.388L1078.93 145.35L1076.12 147.67L1075.75 147.936C1075.57 148.072 1075.36 148.168 1075.13 148.216C1074.91 148.265 1074.68 148.264 1074.45 148.216C1074.23 148.167 1074.01 148.071 1073.83 147.934C1073.65 147.799 1073.5 147.627 1073.39 147.431C1072.83 146.503 1072.41 145.494 1072.17 144.441C1072.15 144.388 1072.14 144.336 1072.12 144.282C1071.89 144.718 1071.68 145.119 1071.47 145.566C1070.92 146.723 1070.38 147.884 1069.8 149.031C1069.61 149.417 1069.37 149.78 1069.09 150.113C1068.88 150.384 1068.57 150.576 1068.23 150.66C1067.89 150.745 1067.53 150.715 1067.21 150.577C1066.9 150.448 1066.65 150.229 1066.48 149.951C1066.31 149.678 1066.23 149.362 1066.25 149.045C1066.23 148.691 1066.29 148.337 1066.41 148.004C1066.48 147.794 1066.55 147.583 1066.62 147.372C1066.96 146.316 1067.3 145.256 1067.72 144.25L1067.72 144.245C1068.4 142.697 1069.09 141.16 1069.79 139.633L1069.79 139.627L1069.79 139.616C1070.07 139.004 1070.35 138.393 1070.62 137.784C1070.74 137.501 1070.9 137.236 1071.1 136.998C1071.34 136.687 1071.66 136.451 1072.04 136.32C1072.41 136.188 1072.82 136.168 1073.2 136.261C1073.59 136.346 1073.94 136.543 1074.21 136.826C1074.48 137.11 1074.66 137.467 1074.72 137.851L1074.72 137.873V137.894C1074.72 138.08 1074.73 138.167 1074.78 138.256L1074.81 138.303L1074.82 138.358C1074.9 138.848 1074.99 139.339 1075.07 139.829C1075.29 141.193 1075.51 142.555 1075.76 143.917C1075.78 143.89 1075.8 143.864 1075.82 143.838Z" fill="#A7ADC5"/>
</g>
<defs>
<clipPath id="clip0_431_7434">
<rect width="187" height="48" fill="white" transform="translate(962.5 108)"/>
</clipPath>
</defs>
</svg>
