<svg width="433" height="305" viewBox="0 0 433 305" fill="none" xmlns="http://www.w3.org/2000/svg">
<g clip-path="url(#clip0_447_9272)">
<rect width="432.752" height="304.396" transform="translate(0.248291 -0.24025)" fill="#2D66C4"/>
<g style="mix-blend-mode:screen" opacity="0.2">
<circle cx="215.955" cy="152.053" r="95.2723" fill="white" fill-opacity="0.4"/>
</g>
<circle opacity="0.2" cx="214.123" cy="150.221" r="51.3005" fill="white" fill-opacity="0.6"/>
<path fill-rule="evenodd" clip-rule="evenodd" d="M-318.642 299.172L-318.642 402.86H-317.469L-317.469 299.172H-251.596V402.86H-250.424V299.172H-184.551V402.86H-183.378V299.172H-117.505V402.86H-116.333V299.172H-51.4753V402.86H-50.3027V299.172H15.5701V402.86H16.7426V299.172H82.6156V402.86H83.7881V299.172H149.661V402.86H150.834V299.172H215.691V402.86H216.864V299.172H282.737V402.86H283.909V299.172H349.782V402.86H350.955V299.172H415.812V402.86H416.984V299.172H482.857V402.86H484.03V299.172H549.903V402.86H551.076V299.172H616.948V402.86H618.121V299.172H682.978V402.86H684.151V299.172H750.024V402.86H751.197V299.172H843.481V297.999H751.197V231.853H843.481V230.681H751.197V164.535H843.481V163.363H751.197V97.2171H843.481V96.0445H751.197V29.899H843.481V28.7264H751.197V-37.4191H843.481V-38.5917H751.197V-104.737H843.481V-105.91H751.197V-172.056H843.481V-173.228H751.197V-268.611H750.024V-173.228H684.151V-268.611H682.978V-173.228H618.121V-268.611H616.948V-173.228H551.076V-268.611H549.903V-173.228H484.03V-268.611H482.857V-173.228H416.984V-268.611H415.812V-173.228H350.955V-268.611H349.782V-173.228H283.909V-268.611H282.737V-173.228H216.864V-268.611H215.691V-173.228H150.834V-268.611H149.661V-173.228H83.7882V-268.611H82.6156V-173.228H16.7427V-268.611H15.5701V-173.228H-50.3026V-268.611H-51.4752V-173.228H-116.333V-268.611H-117.505V-173.228H-183.378V-268.611H-184.551V-173.228H-250.424V-268.611H-251.596V-173.228H-317.469L-317.469 -268.611H-318.642L-318.642 -173.228H-411.083V-172.056H-318.642V-105.91H-411.083V-104.737H-318.642V-38.5917H-411.083V-37.4191H-318.642L-318.642 28.7264H-411.083V29.899H-318.642V96.0445H-411.083V97.2171H-318.642L-318.642 163.363H-411.083V164.535H-318.642V230.681H-411.083V231.853H-318.642V297.999H-411.083V299.172H-318.642ZM750.024 -172.056H684.151V-105.91H750.024V-172.056ZM750.024 -104.737H684.151V-38.5917H750.024V-104.737ZM750.024 -37.4191H684.151V28.7264H750.024V-37.4191ZM750.024 29.899H684.151V96.0445H750.024V29.899ZM750.024 97.2171H684.151V163.363H750.024V97.2171ZM750.024 164.535H684.151V230.681H750.024V164.535ZM750.024 231.853H684.151V297.999H750.024V231.853ZM682.978 231.853V297.999H618.121V231.853H682.978ZM682.978 164.535V230.681H618.121V164.535H682.978ZM682.978 97.2171V163.363H618.121V97.2171H682.978ZM682.978 29.899V96.0445H618.121V29.899H682.978ZM682.978 -37.4191V28.7264H618.121V-37.4191H682.978ZM682.978 -104.737V-38.5917H618.121V-104.737H682.978ZM682.978 -172.056V-105.91H618.121V-172.056H682.978ZM616.948 -172.056H551.076V-105.91H616.948V-172.056ZM616.948 -104.737H551.076V-38.5917H616.948V-104.737ZM616.948 -37.4191H551.076V28.7264H616.948V-37.4191ZM616.948 29.899H551.076L551.076 96.0445H616.948V29.899ZM616.948 97.2171H551.076V163.363H616.948V97.2171ZM616.948 164.535H551.076V230.681H616.948V164.535ZM616.948 231.853H551.076V297.999H616.948V231.853ZM549.903 231.853V297.999H484.03V231.853H549.903ZM549.903 164.535V230.681H484.03V164.535H549.903ZM549.903 97.2171V163.363H484.03V97.2171H549.903ZM549.903 29.899L549.903 96.0445H484.03L484.03 29.899H549.903ZM549.903 -37.4191V28.7264H484.03V-37.4191H549.903ZM549.903 -104.737V-38.5917H484.03V-104.737H549.903ZM549.903 -172.056V-105.91H484.03V-172.056H549.903ZM482.857 -172.056H416.984V-105.91H482.857V-172.056ZM482.857 -104.737H416.984V-38.5917H482.857V-104.737ZM482.857 -37.4191H416.984V28.7264H482.857V-37.4191ZM482.857 29.899H416.984L416.984 96.0445H482.857L482.857 29.899ZM482.857 97.2171H416.984V163.363H482.857V97.2171ZM482.857 164.535H416.984V230.681H482.857V164.535ZM482.857 231.853H416.984V297.999H482.857V231.853ZM415.812 231.853V297.999H350.955V231.853H415.812ZM415.812 164.535V230.681H350.955V164.535H415.812ZM415.812 97.2171V163.363H350.955V97.2171H415.812ZM415.812 29.899L415.812 96.0445H350.955L350.955 29.899H415.812ZM415.812 -37.4191V28.7264H350.955V-37.4191H415.812ZM415.812 -104.737V-38.5917H350.955V-104.737H415.812ZM415.812 -172.056V-105.91H350.955V-172.056H415.812ZM349.782 -172.056H283.909V-105.91H349.782V-172.056ZM349.782 -104.737H283.909V-38.5917H349.782V-104.737ZM349.782 -37.4191H283.909V28.7264H349.782V-37.4191ZM349.782 29.899H283.909L283.909 96.0445H349.782L349.782 29.899ZM349.782 97.2171H283.909V163.363H349.782V97.2171ZM349.782 164.535H283.909V230.681H349.782V164.535ZM349.782 231.853H283.909V297.999H349.782V231.853ZM282.737 231.853V297.999H216.864V231.853H282.737ZM282.737 164.535V230.681H216.864V164.535H282.737ZM282.737 97.2171V163.363H216.864V97.2171H282.737ZM282.737 29.899L282.737 96.0445H216.864L216.864 29.899H282.737ZM282.737 -37.4191V28.7264H216.864V-37.4191H282.737ZM282.737 -104.737V-38.5917H216.864V-104.737H282.737ZM282.737 -172.056V-105.91H216.864V-172.056H282.737ZM215.691 -172.056H150.834V-105.91H215.691V-172.056ZM215.691 -104.737H150.834V-38.5917H215.691V-104.737ZM215.691 -37.4191H150.834V28.7264H215.691V-37.4191ZM215.691 29.899H150.834L150.834 96.0445H215.691L215.691 29.899ZM215.691 97.2171H150.834V163.363H215.691V97.2171ZM215.691 164.535H150.834V230.681H215.691V164.535ZM215.691 231.853H150.834V297.999H215.691V231.853ZM149.661 231.853V297.999H83.7881V231.853H149.661ZM149.661 164.535V230.681H83.7881V164.535H149.661ZM149.661 97.2171V163.363H83.7881V97.2171H149.661ZM149.661 29.899L149.661 96.0445H83.7881L83.7882 29.899H149.661ZM149.661 -37.4191V28.7264H83.7882V-37.4191H149.661ZM149.661 -104.737V-38.5917H83.7882V-104.737H149.661ZM149.661 -172.056V-105.91H83.7882V-172.056H149.661ZM82.6156 -172.056H16.7427V-105.91H82.6156V-172.056ZM82.6156 -104.737H16.7427V-38.5917H82.6156V-104.737ZM82.6156 -37.4191H16.7427V28.7264H82.6156V-37.4191ZM82.6156 29.899H16.7427L16.7426 96.0445H82.6156L82.6156 29.899ZM82.6156 97.2171H16.7426V163.363H82.6156V97.2171ZM82.6156 164.535H16.7426V230.681H82.6156V164.535ZM82.6156 231.853H16.7426V297.999H82.6156V231.853ZM15.5701 231.853V297.999H-50.3027V231.853H15.5701ZM15.5701 164.535V230.681H-50.3027V164.535H15.5701ZM15.5701 97.2171V163.363H-50.3027V97.2171H15.5701ZM15.5701 29.899L15.5701 96.0445H-50.3027L-50.3026 29.899H15.5701ZM15.5701 -37.4191V28.7264H-50.3026V-37.4191H15.5701ZM15.5701 -104.737V-38.5917H-50.3026V-104.737H15.5701ZM15.5701 -172.056V-105.91H-50.3026V-172.056H15.5701ZM-51.4752 -172.056H-116.333V-105.91H-51.4752V-172.056ZM-51.4752 -104.737H-116.333V-38.5917H-51.4752V-104.737ZM-51.4752 -37.4191H-116.333V28.7264H-51.4752V-37.4191ZM-51.4752 29.899H-116.333L-116.333 96.0445H-51.4753L-51.4752 29.899ZM-51.4753 97.2171H-116.333V163.363H-51.4753V97.2171ZM-51.4753 164.535H-116.333V230.681H-51.4753V164.535ZM-51.4753 231.853H-116.333V297.999H-51.4753V231.853ZM-117.505 231.853V297.999H-183.378L-183.378 231.853H-117.505ZM-117.505 164.535V230.681H-183.378V164.535H-117.505ZM-117.505 97.2171V163.363H-183.378V97.2171H-117.505ZM-117.505 29.899L-117.505 96.0445H-183.378V29.899H-117.505ZM-117.505 -37.4191V28.7264H-183.378V-37.4191H-117.505ZM-117.505 -104.737V-38.5917H-183.378L-183.378 -104.737H-117.505ZM-117.505 -172.056V-105.91H-183.378V-172.056H-117.505ZM-184.551 -172.056H-250.424V-105.91H-184.551V-172.056ZM-184.551 -104.737H-250.424L-250.424 -38.5917H-184.551L-184.551 -104.737ZM-184.551 -37.4191H-250.424V28.7264H-184.551V-37.4191ZM-184.551 29.899H-250.424V96.0445H-184.551V29.899ZM-184.551 97.2171H-250.424V163.363H-184.551V97.2171ZM-184.551 164.535H-250.424V230.681H-184.551V164.535ZM-184.551 231.853H-250.424L-250.424 297.999H-184.551L-184.551 231.853ZM-251.596 231.853L-251.596 297.999H-317.469V231.853H-251.596ZM-251.596 164.535V230.681H-317.469L-317.469 164.535H-251.596ZM-251.596 97.2171V163.363H-317.469V97.2171H-251.596ZM-251.596 29.899V96.0445H-317.469L-317.469 29.899H-251.596ZM-251.596 -37.4191V28.7264H-317.469V-37.4191H-251.596ZM-251.596 -104.737L-251.596 -38.5917H-317.469L-317.469 -104.737H-251.596ZM-251.596 -172.056V-105.91H-317.469V-172.056H-251.596Z" fill="url(#paint0_radial_447_9272)"/>
<g filter="url(#filter0_b_447_9272)">
<path fill-rule="evenodd" clip-rule="evenodd" d="M241.166 93.1306C241.166 90.7021 243.134 88.7334 245.563 88.7334C264.181 88.7334 279.275 103.827 279.275 122.445C279.275 124.874 277.306 126.842 274.877 126.842C272.449 126.842 270.48 124.874 270.48 122.445C270.48 108.684 259.324 97.5278 245.563 97.5278C243.134 97.5278 241.166 95.5591 241.166 93.1306ZM213.317 94.5963C183.365 94.5963 159.085 118.877 159.085 148.828C159.085 182.018 185.99 208.923 219.18 208.923C233.563 208.923 247.357 203.209 257.527 193.039C267.698 182.869 273.412 169.074 273.412 154.691V151.76C273.412 149.331 271.443 147.363 269.014 147.363C266.586 147.363 264.617 149.331 264.617 151.76V154.691C264.617 166.742 259.83 178.299 251.309 186.82C242.788 195.342 231.23 200.129 219.18 200.129C190.847 200.129 167.879 177.161 167.879 148.828C167.879 123.734 188.222 103.391 213.317 103.391H216.248C218.677 103.391 220.645 101.422 220.645 98.9935C220.645 96.565 218.677 94.5963 216.248 94.5963H213.317ZM222.315 124.458C218.716 121.774 213.781 121.774 210.182 124.458C205.836 127.681 200.674 129.623 195.281 130.065C191.458 130.308 188.457 133.451 188.399 137.289V153.225C188.399 160.681 193.006 166.648 197.608 170.813C202.303 175.062 207.773 178.148 211.128 179.84C214.343 181.486 218.153 181.486 221.368 179.84C224.721 178.15 230.191 175.068 234.888 170.82C239.492 166.656 244.097 160.689 244.097 153.225V137.355L244.095 137.235C243.991 133.435 241.023 130.337 237.236 130.066C231.836 129.628 226.667 127.685 222.315 124.458ZM210.182 124.458L210.174 124.463L212.806 127.986L210.186 124.455L210.182 124.458ZM215.437 131.509C215.918 131.15 216.578 131.15 217.059 131.509L217.071 131.518C222.415 135.482 228.706 137.961 235.303 138.713V153.225C235.303 156.951 232.946 160.719 228.989 164.298C225.13 167.788 220.447 170.456 217.397 171.993L217.364 172.01C216.664 172.37 215.833 172.37 215.133 172.01L215.1 171.993C212.052 170.457 207.368 167.785 203.509 164.292C199.549 160.709 197.194 156.942 197.194 153.225V138.713C203.791 137.961 210.081 135.482 215.426 131.518L215.437 131.509ZM195.826 138.842L195.865 138.84C195.852 138.841 195.839 138.842 195.826 138.842ZM245.563 106.322C243.134 106.322 241.166 108.291 241.166 110.719C241.166 113.148 243.134 115.117 245.563 115.117C249.61 115.117 252.891 118.398 252.891 122.445C252.891 124.874 254.86 126.842 257.289 126.842C259.717 126.842 261.686 124.874 261.686 122.445C261.686 113.541 254.467 106.322 245.563 106.322Z" fill="url(#paint1_linear_447_9272)" fill-opacity="0.8"/>
</g>
<g style="mix-blend-mode:screen" opacity="0.2">
<circle cx="230.026" cy="56.4874" r="16.123" fill="white" fill-opacity="0.4"/>
</g>
<circle opacity="0.2" cx="229.66" cy="56.121" r="10.2601" fill="white" fill-opacity="0.6"/>
<circle cx="229.66" cy="56.121" r="5.13005" fill="white" fill-opacity="0.6"/>
<g style="mix-blend-mode:screen" opacity="0.2">
<circle cx="603.787" cy="151.76" r="201.098" fill="white" fill-opacity="0.4"/>
</g>
<g style="mix-blend-mode:color-burn">
<rect width="432.752" height="304.396" transform="translate(0.248291 -0.24025)" fill="#2E71E5" fill-opacity="0.1"/>
</g>
<g style="mix-blend-mode:screen" opacity="0.2">
<circle cx="131.529" cy="201.301" r="37.8158" fill="white" fill-opacity="0.4"/>
</g>
<circle opacity="0.2" cx="130.802" cy="200.574" r="20.3623" fill="white" fill-opacity="0.6"/>
<circle cx="130.802" cy="200.574" r="10.1812" fill="white" fill-opacity="0.6"/>
</g>
<defs>
<filter id="filter0_b_447_9272" x="141.203" y="76.7145" width="150.091" height="150.091" filterUnits="userSpaceOnUse" color-interpolation-filters="sRGB">
<feFlood flood-opacity="0" result="BackgroundImageFix"/>
<feGaussianBlur in="BackgroundImageFix" stdDeviation="2.34517"/>
<feComposite in2="SourceAlpha" operator="in" result="effect1_backgroundBlur_447_9272"/>
<feBlend mode="normal" in="SourceGraphic" in2="effect1_backgroundBlur_447_9272" result="shape"/>
</filter>
<radialGradient id="paint0_radial_447_9272" cx="0" cy="0" r="1" gradientUnits="userSpaceOnUse" gradientTransform="translate(213.052 742.186) rotate(180) scale(762.441 723.584)">
<stop stop-color="#EDECF3"/>
<stop offset="1" stop-color="#E6E5F5" stop-opacity="0.01"/>
</radialGradient>
<linearGradient id="paint1_linear_447_9272" x1="186.465" y1="81.405" x2="249.399" y2="216.485" gradientUnits="userSpaceOnUse">
<stop stop-color="white"/>
<stop offset="1" stop-color="white" stop-opacity="0.38"/>
</linearGradient>
<clipPath id="clip0_447_9272">
<rect width="432.752" height="304.396" fill="white" transform="translate(0.248291 -0.24025)"/>
</clipPath>
</defs>
</svg>
